<svg width="240" height="128" viewBox="0 0 240 128" fill="none" xmlns="http://www.w3.org/2000/svg">
<g clip-path="url(#clip0)">
<path d="M75.4725 62.6268L70.0613 59.5085C68.9608 58.8665 68.1353 57.9493 67.4933 56.9405C66.9431 55.9316 66.5762 54.7393 66.5762 53.4553V50.4288C65.1088 49.1448 63.5496 48.0442 61.7153 47.2188V53.547C61.7153 55.6565 62.2656 57.6742 63.2745 59.4168C64.2833 61.1593 65.7508 62.6268 67.5851 63.7273L75.2891 68.2214C75.4725 67.2125 75.4725 66.2036 75.4725 65.1948C75.5642 64.2776 75.5642 63.4522 75.4725 62.6268Z" fill="black"/>
<path d="M61.257 60.6092C60.0647 58.4997 59.331 56.1152 59.331 53.5472V43.8254C57.7719 43.3669 56.2127 43.0917 54.4701 43V53.5472C54.4701 57.0323 55.3873 60.2423 57.0381 63.0855C58.689 65.9286 60.9819 68.3132 64.0084 70.0558L70.9787 74.0912C71.7125 72.6238 72.2627 71.0646 72.6296 69.5055L66.393 65.9286C64.1919 64.5529 62.4493 62.7186 61.257 60.6092ZM39.2455 63.7275C41.0798 62.6269 42.5473 61.1595 43.5561 59.4169C44.565 57.6743 45.1153 55.6566 45.1153 53.5472V44.6509C43.3727 45.3846 41.7218 46.3017 40.2544 47.4023V53.6389C40.2544 54.9229 39.8875 56.1152 39.3373 57.124C38.787 58.1329 37.8698 59.05 36.7693 59.692L34.1095 61.2512C33.8344 62.5352 33.7427 63.9109 33.7427 65.2866C33.7427 65.8369 33.7427 66.4789 33.8344 67.0292L39.2455 63.7275Z" fill="black"/>
<path d="M49.7926 62.9937C51.4435 60.1505 52.3606 56.9405 52.3606 53.4554V45.3845C50.7097 45.4762 49.0589 45.7514 47.4997 46.3017V53.5471C47.4997 56.1151 46.766 58.5914 45.5737 60.6091C44.3815 62.7185 42.6389 64.5528 40.346 65.8368L32 70.6977C32.4586 72.2569 33.0089 73.816 33.7426 75.2834L42.8223 70.0557C45.8489 68.2214 48.1417 65.8368 49.7926 62.9937ZM53.4612 76.5674C51.4435 76.5674 49.4257 77.1177 47.5915 78.1266L39.8874 82.6206C41.3549 83.7212 42.914 84.73 44.6566 85.4637L50.0677 82.3454C51.1683 81.7034 52.3606 81.4283 53.5529 81.4283C54.7452 81.4283 55.9375 81.7034 57.038 82.3454L59.6978 83.9046C61.5321 83.2626 63.2746 82.4372 64.8338 81.3366L59.4226 78.2183C57.4966 77.026 55.4789 76.5674 53.4612 76.5674Z" fill="black"/>
<path d="M62.9077 71.8901C59.8811 70.1475 56.6711 69.3221 53.3694 69.3221C50.1593 69.3221 46.8576 70.1475 43.8311 71.8901L36.769 75.9256C37.6862 77.3013 38.695 78.5853 39.979 79.6858L46.2156 76.109C48.4168 74.825 50.8931 74.183 53.2776 74.183C55.6622 74.183 58.1385 74.825 60.3397 76.109L68.7774 80.9698C69.9697 79.8693 70.9785 78.5853 71.8957 77.2096L62.9077 71.8901ZM154.255 64.0944C153.98 64.0027 153.522 63.8192 153.063 63.6358C152.604 63.4524 152.054 63.269 151.687 63.0855C150.862 62.7187 150.128 62.4435 150.128 61.6181C150.128 60.5175 151.504 60.3341 152.054 60.3341C153.246 60.3341 154.714 60.6092 155.998 61.6181L158.016 58.2247C156.273 57.0324 154.164 56.4821 152.146 56.4821C150.22 56.4821 148.477 57.0324 147.377 57.9495C146.643 58.4998 145.451 59.8755 145.451 61.985C145.451 63.4524 145.909 64.6447 146.918 65.5618C147.56 66.2038 148.386 66.5707 148.844 66.7541C148.936 66.7541 149.028 66.8458 149.028 66.8458C149.486 67.0293 150.22 67.3044 150.954 67.5795C151.229 67.6713 151.412 67.763 151.687 67.8547C152.604 68.2215 153.522 68.5884 153.522 69.4138C153.522 70.5144 152.421 70.8813 151.32 70.8813C150.036 70.8813 148.11 70.4227 146.368 69.1387L144.35 72.6238C145.726 73.541 148.202 74.825 151.229 74.825C153.246 74.825 154.806 74.3664 156.09 73.3575C157.465 72.257 158.199 70.6978 158.199 69.047C158.199 67.6713 157.74 66.479 156.732 65.5618C156.181 64.9198 155.356 64.4613 154.255 64.0944ZM160.125 60.6092H164.619V74.6416H169.205V60.6092H173.699V56.7572H160.125V60.6092ZM180.486 67.3044H187.181V63.5441H180.486V60.6092H187.639V56.7572H175.9V74.6416H187.823V70.6978H180.486V67.3044ZM204.515 58.9584C203.414 57.9495 201.305 56.849 197.728 56.849H191.583V74.6416H197.728C201.305 74.6416 203.414 73.4493 204.515 72.5321C206.441 70.8813 207.45 68.5884 207.45 65.7453C207.358 62.8104 206.441 60.5175 204.515 58.9584ZM201.305 69.5055C200.571 70.2393 199.287 70.6978 197.911 70.6978H196.169V60.6092H197.911C199.837 60.6092 200.846 61.343 201.305 61.7098C202.222 62.627 202.772 64.0944 202.772 65.6535C202.68 67.3044 202.222 68.6801 201.305 69.5055ZM98.8597 65.195C100.235 64.4613 101.061 63.1772 101.061 61.6181C101.061 59.9672 100.511 58.775 99.2266 57.8578C98.2177 57.1241 96.7503 56.7572 95.0077 56.7572H87.9457V74.5498H95.2829C97.2089 74.5498 98.768 74.183 99.8686 73.3575C101.244 72.3487 101.886 71.0647 101.886 69.3221C101.886 67.3961 100.786 65.9287 98.8597 65.195ZM92.5314 60.6092H94.1823C95.8331 60.6092 96.5669 61.2512 96.5669 62.1684C96.5669 63.0855 96.0166 63.7275 94.1823 63.7275H92.5314V60.6092ZM94.4574 70.6978H92.5314V67.121H94.4574C96.2 67.121 97.2089 67.8547 97.2089 68.8635C97.2089 70.0558 96.2917 70.6978 94.4574 70.6978ZM113.351 56.3904C108.215 56.3904 104.087 60.5175 104.087 65.6535C104.087 70.7895 108.215 74.9167 113.351 74.9167C118.487 74.9167 122.614 70.7895 122.614 65.6535C122.614 60.6092 118.487 56.3904 113.351 56.3904ZM113.351 70.6978C110.599 70.6978 108.306 68.405 108.306 65.6535C108.306 62.9021 110.599 60.6092 113.351 60.6092C116.102 60.6092 118.395 62.9021 118.395 65.6535C118.395 68.4967 116.102 70.6978 113.351 70.6978ZM134.078 56.3904C128.942 56.3904 124.815 60.5175 124.815 65.6535C124.815 70.7895 128.942 74.9167 134.078 74.9167C139.214 74.9167 143.341 70.7895 143.341 65.6535C143.341 60.5175 139.214 56.3904 134.078 56.3904ZM134.078 70.6978C131.327 70.6978 129.034 68.405 129.034 65.6535C129.034 62.9021 131.327 60.6092 134.078 60.6092C136.829 60.6092 139.122 62.9021 139.122 65.6535C139.122 68.4967 136.921 70.6978 134.078 70.6978Z" fill="black"/>
</g>
<defs>
<clipPath id="clip0">
<rect width="176" height="42.0969" fill="white" transform="translate(32 43)"/>
</clipPath>
</defs>
</svg>
