<svg width="240" height="128" viewBox="0 0 240 128" fill="none" xmlns="http://www.w3.org/2000/svg">
<g clip-path="url(#clip0)">
<path d="M193.213 95.8722H47.022V32.1138H193.213V95.8722ZM49.0734 93.8235H191.163V34.165H49.0734V93.8235Z" fill="black"/>
<path d="M67.8595 74.1374H67.4179C64.5365 74.1374 60.7843 72.5026 59.5049 70.1182C59.1616 69.5781 60.1881 69.2066 60.4876 69.7431C61.6089 71.8002 64.9271 73.2793 67.4179 73.2793H67.8595C71.5164 73.2793 74.6366 71.8002 74.6366 68.6347C74.6366 65.0585 71.0231 64.1911 67.4633 63.6187C64.6835 63.1657 60.2871 62.133 60.2871 59.0146V58.64C60.2871 55.2731 64.0021 53.8315 67.3637 53.8315H67.6595C70.6371 53.8315 72.6862 54.9387 74.1934 56.0498C74.7344 56.4663 74.0512 57.1225 73.5123 56.7127C72.0476 55.6373 70.1955 54.6894 67.6595 54.6894H67.3637C64.5859 54.6894 61.2677 55.8018 61.2677 58.6398V59.0144C61.2677 61.1895 64.6293 62.2978 67.6087 62.8363C71.6611 63.5381 75.6624 64.3552 75.6624 68.6345C75.6624 72.5351 71.7043 74.1374 67.8595 74.1374Z" fill="black"/>
<path d="M67.8592 74.5551H67.4176C64.5287 74.5551 60.541 72.9311 59.1493 70.3016C58.9982 70.0788 58.9874 69.791 59.1207 69.548C59.2779 69.2641 59.6286 69.074 60.0091 69.074C60.3666 69.074 60.6862 69.252 60.848 69.5419C61.9125 71.5003 65.163 72.866 67.4174 72.866H67.859C70.9319 72.866 74.2286 71.7522 74.2286 68.6347C74.2286 65.3967 70.8501 64.5803 67.3979 64.0207C65.541 63.7215 59.8793 62.7953 59.8793 59.0145V58.6399C59.8793 55.0541 63.7623 53.418 67.3634 53.418H67.6592C70.9294 53.418 73.0928 54.7355 74.4357 55.7179C74.7566 55.9576 74.8704 56.3083 74.7662 56.6415C74.5778 57.1974 73.7835 57.4294 73.2629 57.0369C72.1319 56.2141 70.3184 55.1055 67.6592 55.1055H67.3634C65.2519 55.1055 61.6759 55.8504 61.6759 58.6397V59.0143C61.6759 61.0513 65.4402 62.0251 67.6864 62.4349C71.421 63.0769 76.0683 63.8817 76.0683 68.6344C76.0686 73.0029 71.6432 74.5551 67.8592 74.5551ZM60.0094 69.8891C59.9253 69.8891 59.8469 69.935 59.8386 69.9503C61.0846 72.1972 64.7515 73.7302 67.4176 73.7302H67.8592C71.2709 73.7302 75.2526 72.399 75.2526 68.6347C75.2526 66.1053 73.7472 64.8792 71.4293 64.1199C73.3742 64.8388 75.0439 66.1213 75.0439 68.6347C75.0439 71.7048 72.2208 73.6923 67.859 73.6923H67.4176C64.8809 73.6923 61.3522 72.1793 60.1223 69.9437C60.1033 69.9069 60.0709 69.8891 60.0094 69.8891ZM67.3634 54.2443C64.0466 54.2443 60.6953 55.6054 60.6953 58.6397V59.0143C60.6953 60.8948 62.5216 62.1915 66.2603 62.9764C62.7193 62.1489 60.8599 60.7919 60.8599 59.0143V58.6397C60.8599 55.6276 64.1225 54.2833 67.3637 54.2833H67.6594C70.5557 54.2833 72.5275 55.4785 73.7534 56.3825C73.8766 56.4687 73.9774 56.399 73.9877 56.3839C72.7051 55.4589 70.683 54.2443 67.6594 54.2443H67.3634Z" fill="black"/>
<path d="M88.5724 74.1374H88.0334C83.9879 74.1374 80.7139 71.3904 80.7139 67.979V59.9973C80.7139 56.5833 83.9882 53.8315 88.0334 53.8315H88.5724C92.5724 53.8315 95.8906 56.5833 95.8906 59.9973V67.979C95.8906 71.3904 92.6165 74.1374 88.5724 74.1374ZM94.8647 59.997C94.8647 57.0757 92.032 54.6894 88.5724 54.6894H88.0334C84.5717 54.6894 81.7404 57.0754 81.7404 59.997V67.9787C81.7404 70.8953 84.5717 73.2791 88.0334 73.2791H88.5724C92.032 73.2791 94.8647 70.8951 94.8647 67.9787V59.997Z" fill="black"/>
<path d="M88.5729 74.5551H88.034C83.7718 74.5551 80.3066 71.5988 80.3066 67.9789V59.9972C80.3066 56.3762 83.7718 53.4182 88.034 53.4182H88.5729C92.8344 53.4182 96.2995 56.3762 96.2995 59.9972V67.9789C96.2995 71.5988 92.8344 74.5551 88.5729 74.5551ZM88.034 54.2443C84.2269 54.2443 81.1213 56.8198 81.1213 59.997V67.9787C81.1213 71.1464 84.2266 73.73 88.034 73.73H88.5729C92.3786 73.73 95.4822 71.1464 95.4822 67.9787V59.997C95.4822 56.8198 92.3786 54.2443 88.5729 54.2443H88.034ZM88.5729 73.692H88.034C84.3325 73.692 81.3313 71.1277 81.3313 67.9787V59.997C81.3313 56.8479 84.3325 54.2836 88.034 54.2836H88.5729C92.2634 54.2836 95.2742 56.8479 95.2742 59.997V67.9787C95.2744 71.1279 92.2634 73.692 88.5729 73.692ZM88.034 55.1058C84.7869 55.1058 82.1466 57.3032 82.1466 59.997V67.9787C82.1466 70.6733 84.7869 72.8658 88.034 72.8658H88.5729C91.8179 72.8658 94.4575 70.6733 94.4575 67.9787V59.997C94.4575 57.3032 91.8179 55.1058 88.5729 55.1058H88.034Z" fill="black"/>
<path d="M115.229 53.8315C114.985 53.8315 114.743 53.9982 114.743 54.2825V56.8281V59.6304V68.259V68.8715C114.397 71.338 111.673 73.2795 108.437 73.2795H107.899C104.438 73.2795 101.604 70.8955 101.604 67.931V54.2823C101.604 53.9979 101.362 53.8313 101.064 53.8313C100.823 53.8313 100.579 53.9979 100.579 54.2823V67.9305C100.579 71.3904 103.853 74.1371 107.899 74.1371H108.437C111.087 74.1371 113.779 72.9371 114.742 71.2064V76.6073C114.742 79.5252 111.909 81.9069 108.447 81.9069H107.909C104.836 81.9069 101.905 80.5168 101.129 78.3783C101.031 78.1337 100.833 78.0523 100.635 78.0523C100.391 78.0523 100.106 78.2157 100.106 78.4635C100.106 78.5421 100.106 78.5778 100.151 78.6224C101.076 81.2532 104.592 82.7742 107.909 82.7742H108.447C112.493 82.7742 115.765 80.0187 115.765 76.6073V54.2823C115.765 53.9979 115.471 53.8315 115.229 53.8315Z" fill="black"/>
<path d="M108.448 83.1823H107.91C104.664 83.1823 100.857 81.6918 99.787 78.8292C99.688 78.6929 99.688 78.5483 99.688 78.4635C99.688 77.9693 100.185 77.6331 100.635 77.6331C101.042 77.6331 101.363 77.8584 101.508 78.2289C102.204 80.1259 104.891 81.5003 107.91 81.5003H108.448C111.696 81.5003 114.335 79.3073 114.335 76.607V72.3949C113.007 73.6891 110.741 74.5547 108.437 74.5547H107.899C103.635 74.5547 100.172 71.5784 100.172 67.9302V54.2822C100.172 53.8013 100.563 53.418 101.064 53.418C101.618 53.418 102.012 53.7832 102.012 54.2822V67.9304C102.012 70.6513 104.651 72.8657 107.899 72.8657H108.437C111.428 72.8657 114.017 71.0877 114.339 68.8198L114.334 68.2587V54.2822C114.334 53.8013 114.725 53.418 115.229 53.418C115.687 53.418 116.175 53.7473 116.175 54.2822V76.6072C116.175 80.2376 112.712 83.1823 108.448 83.1823ZM100.539 78.4822V78.4836C101.437 81.0376 104.925 82.3647 107.91 82.3647H108.448C112.255 82.3647 115.358 79.7812 115.358 76.6072V54.2822C115.35 54.2715 115.292 54.2443 115.229 54.2443C115.226 54.2443 115.151 54.2456 115.151 54.2822V68.871C114.773 71.6465 111.88 73.692 108.437 73.692H107.899C104.202 73.692 101.196 71.1067 101.196 67.9304V54.2822C101.19 54.2646 101.147 54.2443 101.064 54.2443C101.064 54.2443 100.987 54.2456 100.987 54.2822V67.9304C100.987 71.1332 104.091 73.73 107.899 73.73H108.437C110.963 73.73 113.521 72.559 114.382 71.0036L115.15 69.6134V76.6072C115.15 79.7622 112.141 82.3243 108.448 82.3243H107.909C104.508 82.3243 101.561 80.7599 100.741 78.5158C100.714 78.4573 100.619 78.4443 100.539 78.4822Z" fill="black"/>
<path d="M128.009 74.1374C124.84 74.1374 122.348 72.0021 122.348 69.3346V45.6921C122.348 45.4011 122.592 45.2366 122.834 45.2366C123.132 45.2366 123.375 45.3646 123.375 45.6921V69.3346C123.375 71.5084 125.424 73.2793 128.009 73.2793C128.35 73.2793 128.542 73.4839 128.542 73.7303C128.542 73.9408 128.35 74.1374 128.009 74.1374Z" fill="black"/>
<path d="M128.009 74.5552C124.6 74.5552 121.94 72.2592 121.94 69.3346V45.6921C121.94 45.208 122.33 44.8274 122.834 44.8274C123.401 44.8274 123.781 45.175 123.781 45.6921V69.3346C123.781 71.2816 125.681 72.8658 128.009 72.8658C128.557 72.8658 128.95 73.231 128.95 73.73C128.95 74.1309 128.621 74.5552 128.009 74.5552ZM122.834 45.6454C122.834 45.6454 122.758 45.6482 122.758 45.6921V69.3346C122.758 71.8002 125.062 73.73 128.009 73.73C128.091 73.73 128.135 73.7028 128.143 73.7001C128.135 73.7001 128.057 73.6921 128.009 73.6921C125.223 73.6921 122.966 71.7376 122.966 69.3346V45.6921C122.972 45.671 122.936 45.6454 122.834 45.6454Z" fill="black"/>
<path d="M146.304 64.3552H132.684V67.979C132.684 70.8955 135.515 73.2793 138.976 73.2793H139.512C142.24 73.2793 144.597 71.7543 145.461 69.6619C145.513 69.4526 145.711 69.3701 145.911 69.3701C146.198 69.3701 146.485 69.533 146.485 69.7799C146.485 69.8235 146.451 69.9072 146.451 69.9504C145.461 72.3742 142.727 74.1374 139.513 74.1374H138.976C134.924 74.1374 131.662 71.3904 131.662 67.979V59.9973C131.662 56.5833 135.023 53.8315 139.024 53.8315H139.42C143.463 53.8315 146.826 56.3842 146.826 59.9973V63.8999C146.826 64.1479 146.595 64.3552 146.304 64.3552ZM145.799 59.997C145.799 57.0757 142.98 54.6894 139.512 54.6894H139.023C135.563 54.6894 132.684 57.0754 132.684 59.997V63.4903H145.799V59.997Z" fill="black"/>
<path d="M139.513 74.5551H138.976C134.717 74.5551 131.25 71.5988 131.25 67.9789V59.9972C131.25 56.3762 134.743 53.4182 139.024 53.4182H139.42C143.884 53.4182 147.246 56.2468 147.246 59.9972V63.8998C147.246 64.3823 146.821 64.7631 146.304 64.7631H133.096V67.9787C133.096 70.6733 135.733 72.8658 138.976 72.8658H139.513C142.013 72.8658 144.256 71.5131 145.099 69.5051C145.151 69.1956 145.477 68.9636 145.911 68.9636C146.476 68.9636 146.904 69.3243 146.904 69.7796C146.904 69.8701 146.872 69.9515 146.849 70.0082L146.821 70.1032C145.76 72.7679 142.819 74.5551 139.513 74.5551ZM139.024 54.2443C135.186 54.2443 132.07 56.8198 132.07 59.997V67.9787C132.07 71.1464 135.172 73.73 138.976 73.73H139.513C142.468 73.73 145.096 72.1698 146.047 69.8349C146.05 69.8214 146.054 69.8077 146.06 69.797C146.023 69.7942 145.964 69.7796 145.911 69.7796C144.879 72.1359 142.34 73.692 139.513 73.692H138.976C135.278 73.692 132.274 71.1277 132.274 67.9787V63.9469H146.304C146.371 63.9469 146.424 63.9048 146.434 63.8941L146.429 59.997C146.429 56.7192 143.408 54.2443 139.42 54.2443H139.024ZM146.221 63.8984H132.274V59.9972C132.274 56.8482 135.302 54.2838 139.024 54.2838H139.513C143.222 54.2838 146.222 56.8482 146.222 59.9972V63.8984H146.221ZM133.096 63.0836H145.404V59.997C145.404 57.3032 142.754 55.1058 139.513 55.1058H139.024C135.759 55.1058 133.096 57.3032 133.096 59.997V63.0836Z" fill="black"/>
<path d="M166.488 74.1374C166.257 74.1374 166.002 73.9749 166.002 73.6923V60.0425C166.002 57.0759 163.128 54.6896 159.656 54.6896H159.171C155.698 54.6896 152.821 56.912 152.821 59.6302V73.6921C152.821 73.9746 152.59 74.1371 152.283 74.1371C152.052 74.1371 151.796 73.9746 151.796 73.6921V54.2823C151.796 53.9979 152.052 53.8725 152.283 53.8725C152.591 53.8725 152.821 53.9979 152.821 54.2823V56.8279C153.76 55.0638 156.492 53.8315 159.171 53.8315H159.656C163.708 53.8315 167.028 56.5833 167.028 60.0425V73.6923C167.028 73.9749 166.742 74.1374 166.488 74.1374Z" fill="black"/>
<path d="M166.488 74.5551C165.984 74.5551 165.588 74.1743 165.588 73.6923V60.0424C165.588 57.3217 162.932 55.1057 159.656 55.1057H159.171C155.957 55.1057 153.241 57.1739 153.241 59.6301V73.692C153.241 74.1903 152.835 74.5549 152.282 74.5549C151.779 74.5549 151.401 74.1741 151.401 73.692V54.2822C151.401 53.8104 151.764 53.4635 152.282 53.4635C152.855 53.4635 153.241 53.7947 153.241 54.2822V55.6157C154.548 54.2968 156.84 53.418 159.171 53.418H159.656C163.949 53.418 167.448 56.3883 167.448 60.0422V73.692C167.448 74.2198 166.953 74.5551 166.488 74.5551ZM159.171 54.2836H159.656C163.375 54.2836 166.422 56.8685 166.422 60.0422V73.692C166.422 73.73 166.488 73.73 166.488 73.73C166.556 73.73 166.613 73.7 166.616 73.6827L166.613 60.0422C166.613 56.8397 163.505 54.2443 159.656 54.2443H159.171C156.592 54.2443 154.018 55.4401 153.189 57.0228L152.424 58.4989V54.2886C152.416 54.2943 152.365 54.2811 152.282 54.2811C152.246 54.2811 152.207 54.2945 152.199 54.3021L152.218 73.6923C152.218 73.7288 152.281 73.7302 152.281 73.7302C152.373 73.7302 152.419 73.703 152.425 73.7003L152.424 59.6301C152.424 56.6813 155.45 54.2836 159.171 54.2836Z" fill="black"/>
<path d="M174.625 69.3345V54.7706H171.989C171.248 54.7706 171.248 53.9112 171.989 53.9112H174.625V45.6481C174.625 45.0714 175.651 45.0714 175.651 45.6481V53.9112H179.986C180.671 53.9112 180.671 54.7706 179.986 54.7706H175.651V69.3345C175.651 71.5082 177.654 73.2792 180.276 73.2792C180.957 73.2792 180.957 74.1372 180.276 74.1372C177.057 74.1372 174.625 72.0019 174.625 69.3345Z" fill="black"/>
<path d="M180.276 74.555C176.873 74.555 174.215 72.259 174.215 69.3345V55.1911H171.989C171.37 55.1911 171.037 54.7555 171.037 54.3431C171.037 53.9349 171.37 53.5002 171.989 53.5002H174.215V45.6481C174.215 45.1692 174.616 44.8037 175.142 44.8037C175.652 44.8037 176.054 45.1694 176.054 45.6481V53.5002H179.986C180.6 53.5002 180.92 53.9349 180.92 54.3431C180.92 54.7555 180.6 55.1911 179.986 55.1911H176.054V69.3345C176.054 71.3157 177.908 72.8657 180.276 72.8657C180.884 72.8657 181.208 73.2988 181.208 73.7054C181.208 74.1219 180.884 74.555 180.276 74.555ZM171.86 54.3491C171.881 54.3491 171.906 54.3639 171.989 54.3639H175.029V69.3342C175.029 71.7998 177.348 73.7297 180.276 73.7297C180.355 73.7297 180.387 73.7091 180.394 73.7038C180.387 73.7038 180.355 73.6917 180.276 73.6917C177.454 73.6917 175.238 71.7722 175.238 69.3342V54.3642H179.986C180.067 54.3642 180.088 54.3452 180.088 54.3452C180.088 54.3452 180.067 54.3262 179.986 54.3262H175.238V45.6481C175.234 45.6421 175.039 45.6407 175.022 45.6542L175.029 54.326H171.989C171.898 54.326 171.872 54.3397 171.856 54.3491H171.86Z" fill="black"/>
</g>
<defs>
<clipPath id="clip0">
<rect width="146.286" height="64" fill="white" transform="translate(47 32)"/>
</clipPath>
</defs>
</svg>
