<svg width="240" height="128" viewBox="0 0 240 128" fill="none" xmlns="http://www.w3.org/2000/svg">
<path d="M88.8677 73.1071H95.1857V95.1535H104.73V73.1071H111.048V63.6968H88.8677V73.1071Z" fill="black"/>
<path d="M116.424 63.8313H125.968V95.1516H116.424V63.8313Z" fill="black"/>
<path d="M163.497 76.821C163.614 77.6046 163.675 78.609 163.675 79.4254C163.675 88.296 156.484 95.4889 147.611 95.4889C138.74 95.4889 131.548 88.296 131.548 79.4254C131.548 70.5534 138.74 63.3618 147.611 63.3618C151.112 63.3618 154.35 64.4806 156.988 66.3804L151.852 72.997C150.635 72.1943 149.179 71.7254 147.611 71.7254C143.36 71.7254 139.912 75.1734 139.912 79.4254C139.912 83.6774 143.36 87.124 147.611 87.124C150.605 87.124 153.198 85.4163 154.472 82.9237H148.351V76.8047L163.497 76.821Z" fill="black"/>
<path d="M52.5723 85.8103C52.5723 85.8103 56.3364 86.846 66.8219 73.7793C76.0973 62.2185 83.8926 63.6971 84.6326 63.6971V73.3759C84.6326 73.3759 78.5299 72.49 70.5179 84.1299C63.3931 94.4805 55.9998 95.2206 52.5723 95.2206V85.8103Z" fill="black"/>
<path d="M195.871 76.6695C190.219 68.6942 186.999 63.4951 181.823 63.4951H169.59V94.6819H179.067V88.7672H193.72C193.72 88.7672 197.282 94.4816 205.751 94.4816V84.4662C205.751 84.4662 200.777 83.5926 195.871 76.6695ZM179.067 80.5671V72.7037C179.067 72.7037 181.689 72.502 182.361 73.7789C182.866 74.7383 187.603 80.5671 187.603 80.5671H179.067Z" fill="black"/>
<path d="M33.5112 95.119H42.9883V32.511H33.5112V95.119Z" fill="#FFA400"/>
</svg>
