<svg width="240" height="128" viewBox="0 0 240 128" fill="none" xmlns="http://www.w3.org/2000/svg">
<mask id="mask0" mask-type="alpha" maskUnits="userSpaceOnUse" x="32" y="56" width="5" height="4">
<path d="M32 56.4253V59.7871H36.4429V56.4253H32V56.4253Z" fill="white"/>
</mask>
<g mask="url(#mask0)">
<path fill-rule="evenodd" clip-rule="evenodd" d="M35.2163 56.681L34.2246 58.5601H34.1989L33.2282 56.681C33.1446 56.5278 32.9979 56.4253 32.8056 56.4253H32V56.6104C32.1153 56.6104 32.2058 56.6488 32.2058 56.7701V59.4161C32.2058 59.5373 32.1153 59.6015 32 59.6015V59.7871H33.1391V59.6015C32.9465 59.6015 32.8574 59.5373 32.8574 59.4161V57.4921H32.9143L34.1355 59.7871H34.2318L35.478 57.4993H35.5354V59.4161C35.5354 59.5373 35.4458 59.6015 35.2607 59.6015V59.7871H36.443V59.6015C36.328 59.6015 36.2384 59.5373 36.2384 59.4161V56.7701C36.2384 56.6488 36.328 56.6104 36.443 56.6104V56.4253H35.6381C35.4458 56.4253 35.2986 56.5278 35.2163 56.681Z" fill="#1D1C1B"/>
</g>
<path fill-rule="evenodd" clip-rule="evenodd" d="M41.5939 59.1867C41.5939 59.6347 41.2306 59.9985 40.7838 59.9985H38.6207C38.1729 59.9985 37.8096 59.6347 37.8096 59.1867V57.0242C37.8096 56.5767 38.1729 56.2134 38.6207 56.2134H40.7838C41.2306 56.2134 41.5939 56.5767 41.5939 57.0242V59.1867Z" fill="#1D1C1B"/>
<path fill-rule="evenodd" clip-rule="evenodd" d="M41.5939 64.3338C41.5939 64.7817 41.2306 65.1437 40.7838 65.1437H38.6207C38.1729 65.1437 37.8096 64.7817 37.8096 64.3338V62.1707C37.8096 61.7229 38.1729 61.3594 38.6207 61.3594H40.7838C41.2306 61.3594 41.5939 61.7229 41.5939 62.1707V64.3338Z" fill="#1D1C1B"/>
<path fill-rule="evenodd" clip-rule="evenodd" d="M46.9499 59.1867C46.9499 59.6347 46.5866 59.9985 46.1386 59.9985H43.9766C43.5281 59.9985 43.1655 59.6347 43.1655 59.1867V57.0242C43.1655 56.5767 43.5281 56.2134 43.9766 56.2134H46.1386C46.5866 56.2134 46.9499 56.5767 46.9499 57.0242V59.1867Z" fill="#1D1C1B"/>
<path fill-rule="evenodd" clip-rule="evenodd" d="M36.2397 64.3338C36.2397 64.7817 35.8769 65.1437 35.4284 65.1437H33.2659C32.8184 65.1437 32.4556 64.7817 32.4556 64.3338V62.1707C32.4556 61.7229 32.8184 61.3594 33.2659 61.3594H35.4284C35.8769 61.3594 36.2397 61.7229 36.2397 62.1707V64.3338Z" fill="#1D1C1B"/>
<path fill-rule="evenodd" clip-rule="evenodd" d="M46.9499 64.3338C46.9499 64.7817 46.5866 65.1437 46.1386 65.1437H43.9766C43.5281 65.1437 43.1655 64.7817 43.1655 64.3338V62.1707C43.1655 61.7229 43.5281 61.3594 43.9766 61.3594H46.1386C46.5866 61.3594 46.9499 61.7229 46.9499 62.1707V64.3338Z" fill="#1D1C1B"/>
<path fill-rule="evenodd" clip-rule="evenodd" d="M46.9499 69.4835C46.9499 69.9299 46.5866 70.2934 46.1386 70.2934H43.9766C43.5281 70.2934 43.1655 69.9299 43.1655 69.4835V67.3187C43.1655 66.8718 43.5281 66.5088 43.9766 66.5088H46.1386C46.5866 66.5088 46.9499 66.8718 46.9499 67.3187V69.4835Z" fill="#1D1C1B"/>
<path fill-rule="evenodd" clip-rule="evenodd" d="M41.5934 69.4835C41.5934 69.9299 41.2297 70.2934 40.7821 70.2934H38.6197C38.1716 70.2934 37.8086 69.9299 37.8086 69.4835V67.3187C37.8086 66.8718 38.1716 66.5088 38.6197 66.5088H40.7821C41.2297 66.5088 41.5934 66.8718 41.5934 67.3187V69.4835Z" fill="#1D1C1B"/>
<path fill-rule="evenodd" clip-rule="evenodd" d="M36.2397 69.4835C36.2397 69.9299 35.8769 70.2934 35.4284 70.2934H33.2659C32.8184 70.2934 32.4556 69.9299 32.4556 69.4835V67.3187C32.4556 66.8718 32.8184 66.5088 33.2659 66.5088H35.4284C35.8769 66.5088 36.2397 66.8718 36.2397 67.3187V69.4835Z" fill="#1D1C1B"/>
<path fill-rule="evenodd" clip-rule="evenodd" d="M68.9077 56.2056V56.9886C68.4333 56.9886 68.0633 57.153 68.0633 57.6472V68.7465C68.0633 69.2413 68.4333 69.5095 68.9077 69.5095V70.2923H63.9651V69.5095C64.7272 69.5095 65.1176 69.2413 65.1176 68.7465V60.7155H64.8715L59.64 70.2923H59.2491L54.1417 60.6742H53.8944V68.7465C53.8944 69.2413 54.2652 69.5095 55.0688 69.5095V70.2923H50.3115V69.5095C50.7845 69.5095 51.1555 69.2413 51.1555 68.7465V57.6472C51.1555 57.153 50.7845 56.9886 50.3115 56.9886V56.2056H53.6673C54.4717 56.2056 55.089 56.638 55.4391 57.2767L59.5163 65.1436H59.6198L63.7797 57.2767C64.1094 56.638 64.7272 56.2056 65.5299 56.2056H68.9077Z" fill="#1D1C1B"/>
<path fill-rule="evenodd" clip-rule="evenodd" d="M88.4313 63.2491C88.4313 68.4384 84.0659 70.4975 79.8645 70.4975C75.6635 70.4975 71.2979 68.4384 71.2979 63.2491C71.2979 58.0589 75.6635 56 79.8645 56C84.0659 56 88.4313 58.0589 88.4313 63.2491ZM74.407 63.2491C74.407 66.4817 76.9195 67.882 79.8645 67.882C82.8099 67.882 85.3214 66.4817 85.3214 63.2491C85.3214 60.0151 82.8099 58.615 79.8645 58.615C76.9195 58.615 74.407 60.0151 74.407 63.2491Z" fill="#1D1C1B"/>
<path fill-rule="evenodd" clip-rule="evenodd" d="M93.6309 56.2056C94.249 56.2056 94.7225 56.6995 94.7225 57.318V67.8204H102.218C103.083 67.8204 103.7 67.4081 103.7 66.7089H104.484V70.2923H90.8296V69.5095C91.3038 69.5095 91.6741 69.2413 91.6741 68.7465V57.6472C91.6741 57.153 91.3038 56.9886 90.8296 56.9886V56.2056H93.6309Z" fill="#1D1C1B"/>
<path fill-rule="evenodd" clip-rule="evenodd" d="M117.516 64.2163H110.412V67.8204H118.341C119.556 67.8204 119.968 67.4907 119.968 66.8734H120.75V70.2923H106.52V69.5091C106.993 69.5091 107.364 69.2413 107.364 68.7474V57.6477C107.364 57.153 106.993 56.9886 106.52 56.9886V56.2056H120.585V59.4802H119.824C119.824 58.8621 119.391 58.5123 118.176 58.5123H110.412V61.9106H117.516V64.2163Z" fill="#1D1C1B"/>
<path fill-rule="evenodd" clip-rule="evenodd" d="M129.864 67.9855C131.038 67.9855 134.188 67.8822 134.188 66.2757C134.188 64.6496 132.315 64.8754 130.502 64.6496L129.04 64.4636C126.096 64.0719 123.316 63.7019 123.316 60.5311C123.316 57.9768 125.374 56.041 129.844 56.041C133.694 56.041 136.886 57.8526 136.886 57.8526L135.3 60.8389L134.683 60.6538C134.725 60.2629 134.683 59.9133 134.231 59.5627C133.159 58.6981 130.708 58.3473 129.905 58.3473C127.887 58.3473 126.343 58.9447 126.343 60.1185C126.343 61.1275 127.064 61.3952 128.32 61.5602L130.832 61.8891C133.879 62.281 137.237 62.4654 137.237 65.8437C137.237 69.7563 132.973 70.4564 129.926 70.4564C125.622 70.4564 123.088 68.603 123.088 68.603L124.201 65.7616L124.777 65.9263C124.819 66.3376 124.86 66.7081 125.374 66.9768C126.446 67.5319 128.67 67.9855 129.864 67.9855Z" fill="#1D1C1B"/>
<path fill-rule="evenodd" clip-rule="evenodd" d="M143.572 63.3315L151.254 56.2056H154.858V56.9886C154.302 56.9886 153.973 57.256 153.499 57.627L148.68 62.0551L152.902 67.4292C153.973 68.83 154.199 69.2005 155.311 69.5091V70.2923H152.613C151.728 70.2923 151.089 69.8387 150.636 69.2413L146.538 64.0113L143.572 66.7286V68.7474C143.572 69.2413 143.943 69.5091 144.747 69.5091V70.2923H139.66V69.5091C140.133 69.5091 140.504 69.2413 140.504 68.7474V57.6477C140.504 57.153 140.133 56.9886 139.66 56.9886V56.2056H142.46C143.079 56.2056 143.572 56.7002 143.572 57.3182V63.3315Z" fill="#1D1C1B"/>
<path fill-rule="evenodd" clip-rule="evenodd" d="M161.175 68.7467C161.175 69.2416 161.546 69.5093 162.02 69.5093V70.2916H157.262V69.5093C157.736 69.5093 158.127 69.2416 158.127 68.7467V57.6472C158.127 57.1535 157.736 56.9886 157.262 56.9886V56.2061H160.084C160.681 56.2061 161.175 56.7004 161.175 57.3178V68.7467Z" fill="#1D1C1B"/>
<path fill-rule="evenodd" clip-rule="evenodd" d="M168.408 60.4476V68.7477C168.408 69.2418 168.777 69.5093 169.581 69.5093V70.2918H164.701V69.5093C165.194 69.5093 165.566 69.2418 165.566 68.7477V57.6474C165.566 57.1533 165.194 56.9888 164.701 56.9888V56.2056H167.089C168.14 56.2056 168.901 56.6591 169.56 57.3182L177.633 65.6793V57.7711C177.633 57.256 177.262 56.9888 176.459 56.9888V56.2056H181.34V56.9888C180.846 56.9888 180.474 57.1533 180.474 57.6474V68.7477C180.474 69.2418 180.846 69.5093 181.34 69.5093V70.2918H179.24C178.21 70.2918 177.427 69.839 176.789 69.2008L168.408 60.4476Z" fill="#1D1C1B"/>
<path fill-rule="evenodd" clip-rule="evenodd" d="M195.194 64.2163H188.09V67.8204H196.019C197.234 67.8204 197.646 67.4907 197.646 66.8734H198.429V70.2923H184.198V69.5091C184.672 69.5091 185.042 69.2413 185.042 68.7474V57.6477C185.042 57.153 184.672 56.9886 184.198 56.9886V56.2056H198.263V59.4802H197.501C197.501 58.8621 197.069 58.5123 195.853 58.5123H188.09V61.9106H195.194V64.2163Z" fill="#1D1C1B"/>
<mask id="mask1" mask-type="alpha" maskUnits="userSpaceOnUse" x="201" y="56" width="7" height="7">
<path d="M207.88 62.9342V56.168H201.115V62.9342H207.88Z" fill="white"/>
</mask>
<g mask="url(#mask1)">
<path fill-rule="evenodd" clip-rule="evenodd" d="M204.493 56.168C206.357 56.168 207.881 57.6927 207.881 59.5559C207.881 61.4189 206.357 62.9342 204.493 62.9342C202.63 62.9342 201.115 61.4189 201.115 59.5559C201.115 57.6927 202.63 56.168 204.493 56.168ZM204.493 62.369C206.055 62.369 207.307 61.1087 207.307 59.5559C207.307 57.9938 206.055 56.7423 204.493 56.7423C202.941 56.7423 201.679 57.9938 201.679 59.5559C201.679 61.1087 202.941 62.369 204.493 62.369ZM203.317 58.0029C203.317 57.909 203.392 57.8245 203.496 57.8245H204.832C205.416 57.8245 205.99 58.1724 205.99 58.8783C205.99 59.5842 205.49 59.8383 205.228 59.9043C205.416 60.271 205.604 60.647 205.792 61.0148C205.858 61.1272 205.763 61.2693 205.632 61.2693H205.312C205.236 61.2693 205.171 61.1932 205.143 61.1365L204.616 59.96H203.919V61.09C203.919 61.1838 203.845 61.2693 203.741 61.2693H203.496C203.392 61.2693 203.317 61.1838 203.317 61.09V58.0029ZM204.832 59.4145C205.18 59.4145 205.397 59.1698 205.397 58.8783C205.397 58.5585 205.18 58.3417 204.832 58.3417H203.91V59.4145H204.832Z" fill="#1D1C1B"/>
</g>
</svg>
