<svg width="240" height="128" viewBox="0 0 240 128" fill="none" xmlns="http://www.w3.org/2000/svg">
<path d="M108.245 95.0688H108.687C108.978 95.0688 109.159 94.9728 109.238 94.7405C109.269 94.6515 109.287 94.5345 109.287 94.1582C109.287 93.7834 109.269 93.6663 109.238 93.5785C109.159 93.3465 108.978 93.2494 108.687 93.2494H108.245C108.231 93.2494 108.223 93.2555 108.223 93.2706V95.0478C108.223 95.0602 108.231 95.0688 108.245 95.0688ZM107.908 92.9904C107.908 92.9705 107.923 92.9558 107.943 92.9558H108.756C109.162 92.9558 109.432 93.1294 109.541 93.4693C109.583 93.5997 109.604 93.7302 109.604 94.1582C109.604 94.5862 109.583 94.7179 109.541 94.8491C109.432 95.1885 109.162 95.3613 108.756 95.3613H107.943C107.923 95.3613 107.908 95.3469 107.908 95.3269V92.9904Z" fill="black"/>
<path d="M110.232 95.3613C110.211 95.3613 110.198 95.347 110.198 95.3269V93.7025C110.198 93.6823 110.211 93.6664 110.232 93.6664H110.461C110.482 93.6664 110.496 93.6823 110.496 93.7025V93.875H110.498C110.573 93.7302 110.722 93.6279 110.949 93.6279C111.084 93.6279 111.21 93.6785 111.295 93.7554C111.313 93.7726 111.317 93.7871 111.304 93.806L111.171 93.977C111.159 93.995 111.139 93.9998 111.124 93.9855C111.044 93.9348 110.96 93.9038 110.861 93.9038C110.602 93.9038 110.496 94.1072 110.496 94.4007V95.3269C110.496 95.347 110.482 95.3613 110.461 95.3613H110.232Z" fill="black"/>
<path d="M111.775 95.3613C111.754 95.3613 111.738 95.347 111.738 95.3269V93.7025C111.738 93.6823 111.754 93.6664 111.775 93.6664H112.001C112.022 93.6664 112.038 93.6823 112.038 93.7025V95.3269C112.038 95.347 112.022 95.3613 112.001 95.3613H111.775ZM111.766 93.2858C111.747 93.2858 111.73 93.2706 111.73 93.2494V92.9906C111.73 92.9705 111.747 92.9559 111.766 92.9559H112.01C112.031 92.9559 112.045 92.9705 112.045 92.9906V93.2494C112.045 93.2706 112.031 93.2858 112.01 93.2858H111.766V93.2858Z" fill="black"/>
<path d="M113.793 94.8666C113.82 94.7776 113.83 94.6673 113.83 94.5132C113.83 94.3608 113.82 94.2502 113.793 94.1582C113.736 93.9926 113.606 93.9036 113.42 93.9036C113.231 93.9036 113.099 93.9878 113.045 94.1582C113.015 94.243 113.006 94.344 113.006 94.5132C113.006 94.6831 113.015 94.7864 113.045 94.8666C113.099 95.0363 113.231 95.126 113.42 95.126C113.606 95.126 113.736 95.0342 113.793 94.8666V94.8666ZM112.743 96C112.721 96 112.708 95.9844 112.708 95.964V93.7025C112.708 93.6823 112.721 93.6664 112.743 93.6664H112.971C112.991 93.6664 113.006 93.6823 113.006 93.7025V93.8622H113.01C113.09 93.7278 113.235 93.6279 113.49 93.6279C113.786 93.6279 113.991 93.7673 114.076 94.0357C114.121 94.1702 114.136 94.3038 114.136 94.5132C114.136 94.7251 114.121 94.8602 114.076 94.9957C113.991 95.263 113.786 95.4012 113.49 95.4012C113.235 95.4012 113.09 95.2974 113.01 95.1642H113.006V95.964C113.006 95.9844 112.991 96 112.971 96H112.743V96Z" fill="black"/>
<path d="M114.697 94.9869H114.944C114.966 94.9869 114.979 95.002 114.979 95.0221V95.3511C114.979 95.3873 114.975 95.405 114.959 95.4288L114.738 95.7189C114.726 95.738 114.71 95.7461 114.694 95.7461C114.675 95.7461 114.662 95.7305 114.662 95.7125V95.0221C114.662 95.002 114.675 94.9869 114.697 94.9869Z" fill="black"/>
<path d="M117.461 94.8667C117.49 94.7866 117.502 94.6833 117.502 94.5134C117.502 94.3442 117.49 94.2432 117.461 94.1584C117.405 93.9879 117.274 93.9038 117.085 93.9038C116.899 93.9038 116.77 93.9928 116.713 94.1584C116.685 94.2504 116.676 94.361 116.676 94.5134C116.676 94.6674 116.685 94.7778 116.713 94.8667C116.77 95.0343 116.899 95.1262 117.085 95.1262C117.274 95.1262 117.405 95.0364 117.461 94.8667V94.8667ZM117.538 95.3615C117.514 95.3615 117.502 95.347 117.502 95.3271V95.1644H117.498C117.413 95.2976 117.27 95.4014 117.016 95.4014C116.721 95.4014 116.516 95.2632 116.429 94.9959C116.385 94.8603 116.37 94.7253 116.37 94.5134C116.37 94.3039 116.385 94.1703 116.429 94.0358C116.516 93.7675 116.721 93.6281 117.016 93.6281C117.27 93.6281 117.413 93.728 117.498 93.8623H117.502V92.9906C117.502 92.9706 117.514 92.9559 117.538 92.9559H117.761C117.783 92.9559 117.799 92.9706 117.799 92.9906V95.3271C117.799 95.347 117.783 95.3615 117.761 95.3615H117.538V95.3615Z" fill="black"/>
<path d="M118.505 95.3613C118.482 95.3613 118.468 95.347 118.468 95.3269V93.7025C118.468 93.6823 118.482 93.6664 118.505 93.6664H118.732C118.752 93.6664 118.767 93.6823 118.767 93.7025V93.875H118.77C118.843 93.7302 118.994 93.6279 119.22 93.6279C119.355 93.6279 119.482 93.6785 119.568 93.7554C119.587 93.7726 119.587 93.7871 119.575 93.806L119.444 93.977C119.43 93.995 119.412 93.9998 119.395 93.9855C119.315 93.9348 119.231 93.9038 119.131 93.9038C118.873 93.9038 118.767 94.1072 118.767 94.4007V95.3269C118.767 95.347 118.752 95.3613 118.732 95.3613H118.505Z" fill="black"/>
<path d="M120.045 95.3613C120.025 95.3613 120.011 95.347 120.011 95.3269V93.7025C120.011 93.6823 120.025 93.6664 120.045 93.6664H120.273C120.294 93.6664 120.309 93.6823 120.309 93.7025V95.3269C120.309 95.347 120.294 95.3613 120.273 95.3613H120.045ZM120.039 93.2858C120.019 93.2858 120.003 93.2706 120.003 93.2494V92.9906C120.003 92.9705 120.019 92.9559 120.039 92.9559H120.28C120.3 92.9559 120.315 92.9705 120.315 92.9906V93.2494C120.315 93.2706 120.3 93.2858 120.28 93.2858H120.039V93.2858Z" fill="black"/>
<path d="M122.064 94.8666C122.092 94.7776 122.102 94.6673 122.102 94.5132C122.102 94.3608 122.092 94.2502 122.064 94.1582C122.007 93.9926 121.879 93.9036 121.691 93.9036C121.503 93.9036 121.371 93.9878 121.316 94.1582C121.287 94.243 121.276 94.344 121.276 94.5132C121.276 94.6831 121.287 94.7864 121.316 94.8666C121.371 95.0363 121.503 95.126 121.691 95.126C121.879 95.126 122.007 95.0342 122.064 94.8666ZM121.015 96C120.993 96 120.979 95.9844 120.979 95.964V93.7025C120.979 93.6823 120.993 93.6664 121.015 93.6664H121.24C121.263 93.6664 121.276 93.6823 121.276 93.7025V93.8622H121.28C121.361 93.7278 121.506 93.6279 121.76 93.6279C122.056 93.6279 122.262 93.7673 122.348 94.0357C122.391 94.1702 122.407 94.3038 122.407 94.5132C122.407 94.7251 122.391 94.8602 122.348 94.9957C122.262 95.263 122.056 95.4012 121.76 95.4012C121.506 95.4012 121.361 95.2974 121.28 95.1642H121.276V95.964C121.276 95.9844 121.263 96 121.24 96H121.015V96Z" fill="black"/>
<path d="M122.968 94.9869H123.216C123.236 94.9869 123.253 95.002 123.253 95.0221V95.3511C123.253 95.3873 123.248 95.405 123.229 95.4288L123.011 95.7189C122.997 95.738 122.983 95.7461 122.963 95.7461C122.948 95.7461 122.933 95.7305 122.933 95.7125V95.0221C122.933 95.002 122.948 94.9869 122.968 94.9869Z" fill="black"/>
<path d="M125.733 94.8667C125.762 94.7866 125.772 94.6833 125.772 94.5134C125.772 94.3442 125.762 94.2432 125.733 94.1584C125.675 93.9879 125.543 93.9038 125.357 93.9038C125.17 93.9038 125.039 93.9928 124.984 94.1584C124.956 94.2504 124.946 94.361 124.946 94.5134C124.946 94.6674 124.956 94.7778 124.984 94.8667C125.039 95.0343 125.17 95.1262 125.357 95.1262C125.543 95.1262 125.675 95.0364 125.733 94.8667V94.8667ZM125.806 95.3615C125.785 95.3615 125.772 95.347 125.772 95.3271V95.1644H125.768C125.686 95.2976 125.542 95.4014 125.286 95.4014C124.99 95.4014 124.786 95.2632 124.7 94.9959C124.656 94.8603 124.64 94.7253 124.64 94.5134C124.64 94.3039 124.656 94.1703 124.7 94.0358C124.786 93.7675 124.99 93.6281 125.286 93.6281C125.542 93.6281 125.686 93.728 125.768 93.8623H125.772V92.9906C125.772 92.9706 125.785 92.9559 125.806 92.9559H126.035C126.056 92.9559 126.068 92.9706 126.068 92.9906V95.3271C126.068 95.347 126.056 95.3615 126.035 95.3615H125.806V95.3615Z" fill="black"/>
<path d="M126.775 95.3613C126.756 95.3613 126.74 95.347 126.74 95.3269V93.7025C126.74 93.6823 126.756 93.6664 126.775 93.6664H127.002C127.023 93.6664 127.038 93.6823 127.038 93.7025V93.875H127.041C127.116 93.7302 127.262 93.6279 127.49 93.6279C127.626 93.6279 127.753 93.6785 127.839 93.7554C127.856 93.7726 127.86 93.7871 127.846 93.806L127.715 93.977C127.699 93.995 127.683 93.9998 127.664 93.9855C127.587 93.9348 127.501 93.9038 127.401 93.9038C127.147 93.9038 127.038 94.1072 127.038 94.4007V95.3269C127.038 95.347 127.023 95.3613 127.002 95.3613H126.775Z" fill="black"/>
<path d="M128.317 95.3613C128.295 95.3613 128.28 95.347 128.28 95.3269V93.7025C128.28 93.6823 128.295 93.6664 128.317 93.6664H128.543C128.564 93.6664 128.579 93.6823 128.579 93.7025V95.3269C128.579 95.347 128.564 95.3613 128.543 95.3613H128.317ZM128.311 93.2858C128.289 93.2858 128.276 93.2706 128.276 93.2494V92.9906C128.276 92.9705 128.289 92.9559 128.311 92.9559H128.551C128.575 92.9559 128.587 92.9705 128.587 92.9906V93.2494C128.587 93.2706 128.575 93.2858 128.551 93.2858H128.311V93.2858Z" fill="black"/>
<path d="M130.333 94.8666C130.362 94.7776 130.374 94.6673 130.374 94.5132C130.374 94.3608 130.362 94.2502 130.333 94.1582C130.277 93.9926 130.148 93.9036 129.963 93.9036C129.775 93.9036 129.642 93.9878 129.584 94.1582C129.556 94.243 129.547 94.344 129.547 94.5132C129.547 94.6831 129.556 94.7864 129.584 94.8666C129.642 95.0363 129.775 95.126 129.963 95.126C130.148 95.126 130.277 95.0342 130.333 94.8666V94.8666ZM129.285 96C129.263 96 129.25 95.9844 129.25 95.964V93.7025C129.25 93.6823 129.263 93.6664 129.285 93.6664H129.509C129.534 93.6664 129.547 93.6823 129.547 93.7025V93.8622H129.55C129.631 93.7278 129.777 93.6279 130.033 93.6279C130.327 93.6279 130.534 93.7673 130.618 94.0357C130.663 94.1702 130.676 94.3038 130.676 94.5132C130.676 94.7251 130.663 94.8602 130.618 94.9957C130.534 95.263 130.327 95.4012 130.033 95.4012C129.777 95.4012 129.631 95.2974 129.55 95.1642H129.547V95.964C129.547 95.9844 129.534 96 129.509 96H129.285V96Z" fill="black"/>
<path d="M131.204 95.022C131.204 95.002 131.217 94.9868 131.238 94.9868H131.507C131.53 94.9868 131.544 95.002 131.544 95.022V95.3269C131.544 95.347 131.53 95.3613 131.507 95.3613H131.238C131.217 95.3613 131.204 95.347 131.204 95.3269V95.022Z" fill="black"/>
<path d="M120.591 50.6777H118.86V50.396H120.591V50.6777Z" fill="black"/>
<path d="M122.201 34.2901C122.201 34.3925 122.122 34.4673 122.022 34.4673H117.432C117.333 34.4673 117.251 34.3925 117.251 34.2901C117.251 34.2802 117.251 34.2691 117.255 34.2602C117.263 34.2292 117.281 34.1979 117.297 34.1701C117.753 33.2948 118.671 32.7004 119.726 32.7004C120.781 32.7004 121.697 33.2948 122.154 34.1701C122.173 34.1979 122.191 34.2292 122.198 34.2602C122.201 34.2691 122.201 34.2802 122.201 34.2901Z" fill="black"/>
<path d="M120.004 32.2794C120.004 32.435 119.879 32.5566 119.726 32.5566C119.572 32.5566 119.446 32.435 119.446 32.2794C119.446 32.1248 119.572 31.9997 119.726 31.9997C119.879 31.9997 120.004 32.1248 120.004 32.2794Z" fill="black"/>
<path d="M123.149 40.536H121.919V40.2488H122.204C122.442 40.2488 122.643 40.0539 122.643 39.8149V38.6756H123.149V40.536ZM121.739 40.536H120.507V40.2488H121.739V40.536ZM120.33 40.536H119.106V40.2488H120.33V40.536ZM118.93 40.536H117.698V40.2488H118.93V40.536V40.536ZM117.518 40.536H116.286V38.6756H116.813V39.8149C116.813 40.0539 117.005 40.2488 117.25 40.2488H117.518V40.536V40.536ZM118.227 39.3861H117.698V38.6756H118.227V39.3861ZM116.991 37.7845H118.227V38.4956H116.991V37.7845ZM116.991 35.9953H118.227V37.6009H116.991V35.9953ZM119.636 39.3861H119.106V38.6756H119.636V39.3861ZM118.403 37.7845H119.636V38.4956H118.403V37.7845ZM118.403 35.9953H119.636V37.6009H118.403V35.9953ZM121.047 39.3861H120.507V38.6756H121.047V39.3861ZM119.815 37.7845H121.046V38.4956H119.815V37.7845ZM119.815 35.9953H121.046V37.6009H119.815V35.9953ZM122.463 39.3861H121.919V38.6756H122.463V39.3861ZM121.227 38.6756H121.739V39.3861H121.227V38.6756ZM119.815 38.6756H120.33V39.3861H119.815V38.6756ZM118.403 38.6756H118.93V39.3861H118.403V38.6756ZM116.991 38.6756H117.518V39.3861H116.991V38.6756ZM121.227 37.7845H122.463V38.4956H121.227V37.7845ZM121.227 35.9953H122.463V37.6009H121.227V35.9953ZM123.33 40.536V38.4956H122.643V35.1921C122.643 34.9507 122.442 34.7504 122.204 34.7504H117.25C117.005 34.7504 116.813 34.9507 116.813 35.1921V38.4956H116.105V40.536H115.698V42.5845C115.698 42.8329 115.894 43.0249 116.137 43.0249H123.315C123.554 43.0249 123.76 42.8329 123.76 42.5845V40.536H123.33Z" fill="black"/>
<path d="M120.681 50.9031H118.773V50.3292H118.962L119.31 47.1349H120.145L120.492 50.3292H120.681V50.9031ZM124.867 64.0854L124.738 62.8972L123.02 47.1282H123.294C123.389 47.1282 123.466 47.0605 123.466 46.9666C123.466 46.8729 123.389 46.7958 123.294 46.7958H122.988L122.765 44.7926C122.754 44.7226 122.752 44.6506 122.752 44.5797V44.5782C122.752 44.1134 123.053 43.7235 123.466 43.5953H115.991C116.397 43.7235 116.704 44.1134 116.704 44.5782V44.5797C116.704 44.6506 116.7 44.7226 116.69 44.7926L116.465 46.7958H116.161C116.062 46.7958 115.991 46.8729 115.991 46.9666C115.991 47.0605 116.062 47.1282 116.161 47.1282H116.434L114.714 62.8972L114.587 64.0854L114.573 64.2153C114.573 64.5382 114.837 64.7983 115.159 64.7983H124.296C124.616 64.7983 124.88 64.5382 124.88 64.2153L124.867 64.0854V64.0854Z" fill="black"/>
<path d="M92.8416 80.465H94.2274C95.7547 80.465 96.3806 79.736 96.3806 78.2151C96.3806 76.3221 95.8215 75.8323 94.3125 75.8323H92.8416V80.465ZM92.8416 86.278H94.5197V86.6985H89V86.278H90.673V75.8323H89V75.4125H94.6686C96.5153 75.4125 98.7183 75.63 98.7183 77.9786C98.7183 79.8896 96.7011 80.5498 95.1279 80.7172V80.7511C97.7689 81.1563 98.3597 82.5762 98.3597 85.3306C98.3597 85.9246 98.4135 86.5975 100.039 86.2944V86.6985C99.5641 86.8203 99.0903 86.9023 98.5976 86.9023C96.8893 86.9023 95.991 86.0424 95.991 84.3193C95.991 82.9153 95.7547 81.8679 95.3144 81.4946C94.8407 81.0904 94.2966 80.8858 93.7737 80.8858H92.8416V86.278V86.278Z" fill="black"/>
<path d="M106.074 82.8649H109.377L107.782 78.1461L106.074 82.8649ZM102.958 86.6987V86.2781H104.329L108.376 75.1543H108.952L112.829 86.2781H114.182V86.6987H108.818V86.2781H110.579L109.544 83.286H105.887L104.84 86.2781H106.565V86.6987H102.958V86.6987Z" fill="black"/>
<path d="M121.58 86.2781H123.257V86.6987H117.737V86.2781H119.413V75.8324H117.737V75.4126H123.257V75.8324H121.58V86.2781Z" fill="black"/>
<path d="M137.698 86.9224H137.192L130.011 76.1706V86.278H131.671V86.6986H127.811V86.278H129.47V75.8323H127.811V75.4125H132.143L137.157 82.7974V75.8323H135.529V75.4125H139.39V75.8323H137.698V86.9224Z" fill="black"/>
<path d="M143.682 86.8029H143.39V83.44H143.882C144.237 85.047 145.205 86.5313 146.997 86.5313C148.336 86.5313 149.52 85.5498 149.52 84.1681C149.52 82.5962 148.115 82.2904 146.847 81.8524C146.508 81.7319 146.169 81.6151 145.83 81.5133C144.256 81.0402 143.476 79.8568 143.476 78.2503C143.476 76.4752 144.798 75.1544 146.558 75.1544C147.542 75.1544 148.251 75.3934 149.029 76.0033L149.673 75.3272H149.977V78.5213H149.439C149.25 76.913 148.199 75.5797 146.508 75.5797C145.423 75.5797 144.409 76.3744 144.409 77.5076C144.409 78.8099 145.304 78.9414 146.356 79.2315C146.779 79.3496 147.117 79.4665 147.404 79.5526C147.743 79.6526 148.166 79.7715 148.522 79.9412C149.946 80.6167 150.452 81.7319 150.452 83.252C150.452 85.3825 149.066 86.9541 146.88 86.9541C146.083 86.9541 145.068 86.6335 144.475 86.0932L143.682 86.8029Z" fill="black"/>
</svg>
