<svg width="240" height="128" viewBox="0 0 240 128" fill="none" xmlns="http://www.w3.org/2000/svg">
<g clip-path="url(#clip0)">
<path d="M83.0556 59.7989V68.7875H85.2967C85.8687 68.779 86.4331 68.6559 86.9566 68.4254C87.4802 68.195 87.9522 67.8618 88.3447 67.4458C89.1504 66.5928 89.5912 65.459 89.5733 64.2858C89.5904 63.703 89.4922 63.1227 89.2843 62.578C89.0764 62.0334 88.7629 61.5352 88.3619 61.1121C87.9677 60.6954 87.4924 60.3639 86.9653 60.1378C86.4381 59.9118 85.8703 59.7961 85.2967 59.7978H83.0567L83.0556 59.7989ZM85.2967 56.9806C89.4739 56.9806 92.6339 60.2172 92.6339 64.2858C92.6339 68.3543 89.4739 71.6092 85.2967 71.6092H80.3539C80.3067 71.6086 80.2602 71.5987 80.2169 71.5801C80.1736 71.5616 80.1343 71.5346 80.1014 71.5009C80.0685 71.4671 80.0426 71.4272 80.0251 71.3834C80.0077 71.3397 79.999 71.2929 79.9996 71.2458V57.3589C79.9996 57.1578 80.1584 56.9943 80.3539 56.9943L85.2967 56.9806ZM103.401 69.1006C105.298 69.1063 107.011 67.9395 107.741 66.1441C108.099 65.2668 108.195 64.3047 108.017 63.3742C107.838 62.4437 107.394 61.5849 106.738 60.9018C106.093 60.2299 105.259 59.7694 104.347 59.5813C103.435 59.3932 102.487 59.4862 101.629 59.8481C99.8762 60.5886 98.731 62.3406 98.7276 64.2858C98.7276 66.9372 100.817 69.0881 103.402 69.1006H103.401ZM103.402 56.6492C107.798 56.6492 111.16 60.1143 111.16 64.2858C111.16 68.4572 107.798 71.9223 103.401 71.9223C99.0042 71.9223 95.6716 68.4743 95.6716 64.2858C95.6716 60.0972 99.0327 56.6492 103.401 56.6492H103.402ZM121.84 69.1006C124.426 69.0938 126.518 66.9406 126.516 64.2892C126.513 61.6355 124.416 59.4869 121.83 59.4858C119.243 59.4858 117.145 61.6332 117.141 64.2858C117.141 65.5635 117.636 66.7886 118.517 67.6915C118.949 68.1364 119.465 68.4904 120.035 68.7324C120.606 68.9744 121.219 69.0997 121.838 69.1006H121.84ZM121.838 56.6492C126.221 56.6492 129.582 60.0972 129.582 64.2858C129.582 68.4743 126.208 71.9223 121.838 71.9223C117.47 71.9223 114.081 68.4743 114.081 64.2858C114.081 60.0972 117.442 56.6492 121.838 56.6492ZM139.834 59.7989H136.674V63.6675H139.834C140.084 63.6785 140.333 63.6383 140.566 63.5493C140.8 63.4602 141.013 63.3243 141.192 63.1498C141.557 62.7955 141.765 62.3041 141.77 61.7875C141.779 61.5254 141.735 61.2642 141.641 61.0195C141.547 60.7748 141.404 60.5516 141.221 60.3635C141.042 60.1783 140.826 60.0327 140.587 59.9361C140.348 59.8394 140.091 59.7939 139.834 59.8023V59.7989ZM133.617 57.3589C133.617 57.1578 133.777 56.9943 133.972 56.9943H139.922C142.758 56.9943 144.811 59.1258 144.811 61.8023C144.833 63.6126 143.844 65.2755 142.266 66.0858L145.01 71.0606C145.048 71.1178 145.069 71.1844 145.072 71.253C145.074 71.3216 145.057 71.3895 145.024 71.4492C144.991 71.508 144.941 71.556 144.882 71.5876C144.822 71.6192 144.755 71.6331 144.688 71.6275H142.28C142.213 71.6284 142.147 71.6105 142.09 71.5757C142.033 71.5409 141.987 71.4907 141.957 71.4309L139.313 66.5075H136.662V71.2343C136.663 71.2816 136.655 71.3285 136.637 71.3724C136.62 71.4163 136.594 71.4563 136.561 71.4902C136.528 71.524 136.489 71.5511 136.445 71.5697C136.402 71.5884 136.355 71.5983 136.308 71.5989H133.988C133.941 71.5983 133.894 71.5884 133.851 71.5697C133.808 71.5511 133.768 71.524 133.735 71.4902C133.702 71.4563 133.677 71.4163 133.659 71.3724C133.642 71.3285 133.633 71.2816 133.634 71.2343L133.618 57.3601L133.617 57.3589ZM152.779 59.8675V68.8572H155.019C155.591 68.8494 156.155 68.7271 156.679 68.4974C157.203 68.2678 157.675 67.9354 158.068 67.5201C158.874 66.6681 159.316 65.5351 159.299 64.3623C159.317 63.7789 159.22 63.1976 159.013 62.6519C158.805 62.1063 158.492 61.607 158.091 61.1829C157.696 60.7656 157.22 60.4336 156.692 60.2075C156.164 59.9815 155.595 59.8661 155.02 59.8686L152.779 59.8675ZM155.019 57.0458C159.196 57.0458 162.356 60.2858 162.356 64.3623C162.356 68.4389 159.196 71.6789 155.019 71.6789H150.091C150.044 71.6783 149.997 71.6684 149.954 71.6497C149.91 71.6311 149.871 71.604 149.838 71.5702C149.805 71.5363 149.779 71.4963 149.762 71.4524C149.745 71.4085 149.736 71.3616 149.737 71.3143V57.4286C149.737 57.2263 149.896 57.0629 150.091 57.0629L155.02 57.0458H155.019ZM171.677 60.6206L169.944 65.4275H173.408L171.677 60.6206ZM168.926 68.1441L167.792 71.3441C167.769 71.4193 167.722 71.4849 167.658 71.5304C167.593 71.576 167.516 71.5988 167.437 71.5955H164.976C164.913 71.6013 164.85 71.5902 164.793 71.5632C164.736 71.5363 164.687 71.4945 164.652 71.4423C164.616 71.3895 164.594 71.3283 164.589 71.2647C164.584 71.201 164.595 71.137 164.621 71.0789L169.94 57.2058C169.965 57.1326 170.013 57.0696 170.077 57.0262C170.141 56.9829 170.217 56.9617 170.294 56.9658H173.049C173.126 56.9614 173.203 56.9825 173.267 57.0259C173.331 57.0692 173.379 57.1324 173.404 57.2058L178.723 71.0789C178.749 71.1371 178.76 71.2012 178.755 71.2648C178.749 71.3285 178.727 71.3896 178.691 71.4423C178.656 71.4943 178.607 71.5359 178.55 71.5626C178.493 71.5893 178.43 71.6003 178.368 71.5943H175.907C175.828 71.5977 175.751 71.5748 175.687 71.5293C175.623 71.4838 175.576 71.4182 175.553 71.3429L174.418 68.1429H168.926V68.1441ZM181.577 60.9326C181.577 58.6355 183.513 56.6492 186.57 56.6492C188.216 56.6124 189.81 57.2283 191.004 58.3623C191.041 58.3967 191.07 58.4382 191.089 58.4842C191.109 58.5302 191.119 58.5797 191.119 58.6298C191.119 58.6798 191.109 58.7294 191.089 58.7754C191.07 58.8213 191.041 58.8628 191.004 58.8972L189.641 60.2858C189.608 60.3195 189.569 60.3463 189.526 60.3646C189.483 60.383 189.436 60.3924 189.389 60.3924C189.342 60.3924 189.296 60.383 189.253 60.3646C189.21 60.3463 189.17 60.3195 189.138 60.2858C188.496 59.6838 187.652 59.3428 186.772 59.3292C185.549 59.3292 184.645 60.0572 184.645 60.8972C184.645 63.6126 191.872 62.0458 191.872 67.2709C191.868 69.9189 189.917 71.9223 186.468 71.9223C185.51 71.9321 184.56 71.7492 183.675 71.3844C182.789 71.0196 181.986 70.4804 181.313 69.7989C181.276 69.7645 181.247 69.7231 181.228 69.6771C181.208 69.6311 181.198 69.5816 181.198 69.5315C181.198 69.4814 181.208 69.4319 181.228 69.3859C181.247 69.3399 181.276 69.2984 181.313 69.2641L182.632 67.9109C182.664 67.8755 182.704 67.8473 182.748 67.828C182.793 67.8087 182.84 67.7988 182.889 67.7988C182.937 67.7988 182.985 67.8087 183.029 67.828C183.073 67.8473 183.113 67.8755 183.146 67.9109C183.976 68.7337 185.094 69.201 186.262 69.2138C187.79 69.2138 188.797 68.3772 188.797 67.3292C188.797 64.6126 181.574 66.1806 181.574 60.9543L181.577 60.9326ZM204.976 57.3406V62.8309H198.859V57.3406C198.86 57.2935 198.851 57.2467 198.833 57.2029C198.816 57.1592 198.79 57.1193 198.757 57.0855C198.724 57.0518 198.685 57.0248 198.642 57.0063C198.598 56.9877 198.552 56.9778 198.505 56.9772H196.185C196.138 56.9778 196.091 56.9877 196.048 57.0063C196.004 57.0248 195.965 57.0518 195.932 57.0855C195.899 57.1193 195.873 57.1592 195.856 57.2029C195.839 57.2467 195.83 57.2935 195.83 57.3406V71.2115C195.83 71.4126 195.99 71.5761 196.185 71.5761H198.505C198.699 71.5761 198.859 71.4126 198.859 71.2115V65.6343H204.971V71.2115C204.971 71.4126 205.131 71.5761 205.325 71.5761H207.645C207.841 71.5761 208 71.4126 208 71.2115V57.3406C208 57.2935 207.992 57.2467 207.974 57.2029C207.957 57.1592 207.931 57.1193 207.898 57.0855C207.865 57.0518 207.826 57.0248 207.782 57.0063C207.739 56.9877 207.692 56.9778 207.645 56.9772H205.325C205.231 56.9796 205.141 57.0191 205.076 57.0871C205.01 57.1551 204.974 57.2462 204.976 57.3406ZM66.9767 58.8286C65.3676 55.8458 62.219 53.9886 58.795 54.0001H32.8887C32.7138 54.0008 32.5429 54.0529 32.3974 54.1501C32.2519 54.2472 32.1382 54.385 32.0704 54.5463C32.0037 54.7066 31.9863 54.8832 32.0205 55.0534C32.0547 55.2236 32.139 55.3797 32.2624 55.5018L37.9059 61.1018C38.4041 61.5978 39.083 61.8755 39.7893 61.8755H58.0521C59.3539 61.8618 60.4179 62.8926 60.4316 64.1761C60.4453 65.4595 59.4019 66.5109 58.1001 66.5235H45.5093C45.3342 66.5236 45.163 66.5752 45.0171 66.6719C44.8712 66.7687 44.757 66.9062 44.6887 67.0675C44.6213 67.2279 44.6035 67.4049 44.6375 67.5756C44.6715 67.7462 44.7558 67.9028 44.8796 68.0252L50.5264 73.6298C51.0278 74.1255 51.7048 74.4032 52.4099 74.4023H58.1047C65.5139 74.4023 71.1161 66.5852 66.9767 58.8252" fill="#FF3008"/>
</g>
<defs>
<clipPath id="clip0">
<rect width="176" height="20.5714" fill="white" transform="translate(32 54)"/>
</clipPath>
</defs>
</svg>
