<svg width="240" height="128" viewBox="0 0 240 128" fill="none" xmlns="http://www.w3.org/2000/svg">
<path d="M56.4658 69.2653C56.4658 76.7755 61.3839 81.6272 67.8971 81.6272C74.3439 81.6272 79.3285 76.6426 79.3285 69.2653V40.554H86.307V87.077H79.395V82.757C76.2713 86.0136 71.9513 87.8746 67.0996 87.8746C57.1304 87.8746 49.4873 80.6303 49.4873 69.6641V40.554H56.4658V69.2653V69.2653ZM93.1525 87.077V40.554H99.8651V57.5016C101.431 55.8982 103.302 54.625 105.368 53.7574C107.434 52.8899 109.654 52.4455 111.895 52.4506C121.864 52.4506 129.706 60.3595 129.706 70.1958C129.706 79.9656 121.864 87.8746 111.895 87.8746C107.176 87.8746 102.856 85.9472 99.7987 82.8235V87.077H93.1525V87.077ZM99.7322 70.1958C99.7322 76.709 104.916 81.9595 111.429 81.9595C117.81 81.9595 123.06 76.709 123.06 70.1958C123.06 63.6161 117.81 58.4321 111.429 58.4321C104.983 58.4321 99.7322 63.6161 99.7322 70.1958V70.1958ZM133.694 70.1293C133.694 60.5589 141.204 52.517 151.107 52.517C160.877 52.517 168.055 60.0272 168.055 70.1293V72.3226H140.473C141.404 77.8389 145.989 81.9595 151.705 81.9595C155.626 81.9595 158.949 80.3644 161.475 76.9749L166.327 80.5638C162.937 85.0832 157.886 87.8081 151.705 87.8081C141.537 87.8081 133.694 80.2315 133.694 70.1293V70.1293ZM150.974 58.3656C145.989 58.3656 141.802 61.8216 140.606 67.0056H161.276C160.146 61.8216 155.959 58.3656 150.974 58.3656ZM190.386 59.1632H187.594C183.208 59.1632 180.018 62.5527 180.018 67.8032V87.077H173.305V53.1816H179.951V57.3687C181.613 54.6438 184.338 52.9158 188.06 52.9158H190.386V59.1632V59.1632Z" fill="black"/>
</svg>
