<svg width="240" height="128" viewBox="0 0 240 128" fill="none" xmlns="http://www.w3.org/2000/svg">
<path d="M106.897 64.5283C106.897 72.7912 100.433 78.88 92.5001 78.88C84.5671 78.88 78.103 72.7912 78.103 64.5283C78.103 56.2071 84.5671 50.1765 92.5001 50.1765C100.433 50.1765 106.897 56.2071 106.897 64.5283ZM100.595 64.5283C100.595 59.3647 96.8483 55.8318 92.5001 55.8318C88.1519 55.8318 84.4054 59.3647 84.4054 64.5283C84.4054 69.64 88.1519 73.2247 92.5001 73.2247C96.8483 73.2247 100.595 69.6336 100.595 64.5283Z" fill="#EA4335"/>
<path d="M137.956 64.5283C137.956 72.7912 131.492 78.88 123.559 78.88C115.626 78.88 109.162 72.7912 109.162 64.5283C109.162 56.2136 115.626 50.1765 123.559 50.1765C131.492 50.1765 137.956 56.2071 137.956 64.5283ZM131.653 64.5283C131.653 59.3647 127.907 55.8318 123.559 55.8318C119.21 55.8318 115.464 59.3647 115.464 64.5283C115.464 69.64 119.21 73.2247 123.559 73.2247C127.907 73.2247 131.653 69.6336 131.653 64.5283Z" fill="#FBBC05"/>
<path d="M167.72 51.0436V76.8095C167.72 87.4083 161.47 91.7371 154.08 91.7371C147.125 91.7371 142.938 87.0848 141.359 83.28L146.846 80.9959C147.823 83.3318 150.218 86.0883 154.074 86.0883C158.804 86.0883 161.735 83.17 161.735 77.6765V75.6124H161.515C160.105 77.353 157.387 78.8736 153.958 78.8736C146.782 78.8736 140.208 72.623 140.208 64.58C140.208 56.4789 146.782 50.1765 153.958 50.1765C157.38 50.1765 160.098 51.6971 161.515 53.3859H161.735V51.05H167.72V51.0436ZM162.182 64.58C162.182 59.5265 158.81 55.8318 154.52 55.8318C150.172 55.8318 146.529 59.5265 146.529 64.58C146.529 69.5818 150.172 73.2247 154.52 73.2247C158.81 73.2247 162.182 69.5818 162.182 64.58Z" fill="#4285F4"/>
<path d="M177.588 35.9412V78H171.441V35.9412H177.588Z" fill="#34A853"/>
<path d="M201.543 69.2517L206.434 72.5129C204.855 74.8487 201.051 78.8735 194.477 78.8735C186.324 78.8735 180.235 72.5711 180.235 64.5217C180.235 55.987 186.375 50.1699 193.771 50.1699C201.219 50.1699 204.862 56.097 206.053 59.2999L206.706 60.9305L187.521 68.8764C188.99 71.7558 191.274 73.2246 194.477 73.2246C197.686 73.2246 199.912 71.6458 201.543 69.2517ZM186.485 64.0882L199.31 58.7629C198.605 56.9705 196.483 55.7217 193.985 55.7217C190.782 55.7217 186.324 58.5493 186.485 64.0882Z" fill="#EA4335"/>
<path d="M54.8347 60.7948V54.706H75.3529C75.5535 55.7671 75.657 57.0224 75.657 58.3813C75.657 62.9495 74.4082 68.5983 70.3835 72.623C66.4688 76.6995 61.467 78.8736 54.8411 78.8736C42.56 78.8736 32.2329 68.8701 32.2329 56.5889C32.2329 44.3077 42.56 34.3042 54.8411 34.3042C61.6353 34.3042 66.4753 36.9701 70.1117 40.4448L65.8153 44.7413C63.2076 42.2954 59.6747 40.393 54.8347 40.393C45.8664 40.393 38.8523 47.6207 38.8523 56.5889C38.8523 65.5571 45.8664 72.7848 54.8347 72.7848C60.6517 72.7848 63.9647 70.4489 66.087 68.3266C67.8082 66.6054 68.9406 64.1466 69.387 60.7883L54.8347 60.7948Z" fill="#4285F4"/>
</svg>
