<svg width="240" height="128" viewBox="0 0 240 128" fill="none" xmlns="http://www.w3.org/2000/svg">
<path d="M145.779 81.8754C144.811 84.1114 143.665 86.1696 142.338 88.0619C140.528 90.6416 139.047 92.4272 137.905 93.4188C136.135 95.0464 134.239 95.8799 132.209 95.9273C130.751 95.9273 128.993 95.5125 126.947 94.6711C124.894 93.8336 123.007 93.4188 121.282 93.4188C119.472 93.4188 117.532 93.8336 115.456 94.6711C113.377 95.5125 111.703 95.9511 110.422 95.9945C108.475 96.0775 106.534 95.2202 104.597 93.4188C103.361 92.3403 101.814 90.4915 99.9612 87.8723C97.9733 85.0753 96.339 81.832 95.0586 78.1343C93.6874 74.1404 93 70.2728 93 66.5285C93 62.2395 93.9268 58.5402 95.7831 55.4403C97.242 52.9503 99.1829 50.9861 101.612 49.5442C104.041 48.1022 106.666 47.3674 109.493 47.3204C111.039 47.3204 113.067 47.7988 115.588 48.7391C118.101 49.6824 119.715 50.1608 120.422 50.1608C120.951 50.1608 122.744 49.6014 125.783 48.4862C128.657 47.452 131.083 47.0237 133.07 47.1924C138.454 47.627 142.5 49.7496 145.19 53.5737C140.374 56.4915 137.992 60.5783 138.04 65.821C138.083 69.9046 139.564 73.3028 142.476 76.001C143.795 77.2533 145.269 78.2212 146.908 78.9086C146.553 79.9397 146.178 80.9273 145.779 81.8754V81.8754ZM133.429 33.2804C133.429 36.4811 132.26 39.4696 129.929 42.2357C127.116 45.5241 123.714 47.4243 120.025 47.1245C119.978 46.7405 119.951 46.3364 119.951 45.9117C119.951 42.839 121.288 39.5506 123.664 36.8619C124.85 35.5005 126.358 34.3686 128.187 33.4656C130.012 32.5761 131.739 32.0842 133.362 32C133.41 32.4279 133.429 32.8558 133.429 33.2803V33.2804Z" fill="black"/>
</svg>
