<svg width="240" height="128" viewBox="0 0 240 128" fill="none" xmlns="http://www.w3.org/2000/svg">
<g clip-path="url(#clip0)">
<path d="M32 72.5407V56H45.2407V59.3H35.3V62.6H41.9V65.9407H35.3V69.2407H45.2407V72.5407H32Z" fill="black"/>
<path d="M59.5817 72.5407L52.9409 56H56.4854L61.252 67.7741L65.9372 56H69.4817L62.8817 72.5407H59.5817Z" fill="black"/>
<path d="M78.0776 72.5407V56H91.3184V59.3H81.3776V62.6H87.9776V65.9407H81.3776V69.2407H91.3184V72.5407H78.0776Z" fill="black"/>
<path d="M113.197 65.2888L115.559 72.5407H112.097L109.937 65.9407H104.152V72.5407H100.852V56H110.752C111.408 55.9912 112.059 56.1127 112.667 56.3575C113.276 56.6023 113.829 56.9654 114.297 57.4259C114.768 57.885 115.138 58.4374 115.383 59.0477C115.629 59.658 115.744 60.3128 115.722 60.9703C115.744 61.8537 115.519 62.7256 115.073 63.4883C114.627 64.2511 113.977 64.8745 113.197 65.2888V65.2888ZM104.152 62.6H110.752C110.972 62.6023 111.19 62.5602 111.393 62.4762C111.596 62.3922 111.78 62.268 111.934 62.1111C112.093 61.9595 112.22 61.776 112.304 61.5724C112.388 61.3688 112.428 61.1498 112.422 60.9296C112.422 60.7102 112.379 60.493 112.295 60.2904C112.211 60.0877 112.088 59.9036 111.933 59.7485C111.778 59.5933 111.594 59.4703 111.391 59.3864C111.189 59.3024 110.971 59.2592 110.752 59.2592H104.152V62.6V62.6Z" fill="black"/>
<path d="M125.541 72.5407V56H128.841V69.2407H137.111V72.5407H125.541Z" fill="black"/>
<path d="M156.992 69.2407H150.189L148.844 72.5407H145.3L151.941 56H155.241L161.881 72.5407H158.337L156.992 69.2407ZM155.648 65.9407L153.57 60.7667L151.492 65.9407H155.648V65.9407Z" fill="black"/>
<path d="M184.778 56V72.5407H181.478L173.207 61.5407V72.5407H169.907V56H173.207L181.478 67V56H184.778Z" fill="black"/>
<path d="M194.759 72.5407V56H208V59.3H198.059V62.6H204.659V65.9407H198.059V69.2407H208V72.5407H194.759Z" fill="black"/>
</g>
<defs>
<clipPath id="clip0">
<rect width="176" height="16.5407" fill="white" transform="translate(32 56)"/>
</clipPath>
</defs>
</svg>
