<svg width="240" height="128" viewBox="0 0 240 128" fill="none" xmlns="http://www.w3.org/2000/svg">
<path d="M131.676 51.2901C131.778 51.2901 131.905 51.2901 132.006 51.2647C133.68 51.0872 135.176 49.718 135.429 48.0191C135.683 46.3455 134.618 44.9509 132.995 44.7734C132.894 44.7734 132.767 44.748 132.665 44.748C132.564 44.748 132.437 44.748 132.336 44.7734C130.662 44.9509 129.166 46.3202 128.912 48.0191C128.786 48.9066 129.014 49.6926 129.496 50.3012C130.003 50.9097 130.764 51.2901 131.676 51.2901Z" fill="black"/>
<path d="M208 78.5233C208 74.0605 205.819 69.978 203.892 66.3774C202.244 63.3092 200.773 60.52 201.154 58.4407C201.433 56.9447 202.498 56.0825 204.146 55.9811C204.196 55.9811 204.247 55.9558 204.298 55.9558C204.374 55.9304 204.45 55.8797 204.526 55.829C204.602 55.7783 204.653 55.7022 204.678 55.6261C204.678 55.6008 204.704 55.6008 204.704 55.5754L205.515 53.4708C205.591 53.2426 205.616 53.0905 205.54 52.9383C205.49 52.8369 205.414 52.7355 205.287 52.634C205.135 52.5072 204.881 52.4058 204.551 52.3044C204.095 52.1523 203.512 52.0508 202.979 52.0508C200.596 52.0508 197.68 52.8369 195.144 59.1507C195.043 59.4043 190.149 72.0827 189.997 72.4884C189.388 73.9844 188.095 75.7847 185.356 75.7847C184.165 75.7847 183.201 75.3283 182.669 74.5676C182.567 74.4155 182.491 74.2633 182.415 74.1112C182.212 73.6041 182.136 72.9955 182.263 72.3362C182.314 72.108 182.364 71.8544 182.44 71.6009C182.567 71.1698 182.745 70.688 182.948 70.2063C184.824 65.4138 191.493 48.3487 193.547 43.0999C193.8 42.4406 193.445 41.9081 192.735 41.9081H190.377C190.124 41.9081 189.845 41.9842 189.616 42.111C189.185 42.3138 188.83 42.6942 188.653 43.0999C187.74 45.4074 186.447 48.7544 185.078 52.279C184.013 54.9922 182.922 57.8068 181.908 60.3678C181.604 59.8607 181.249 59.3789 180.868 58.9225C180.463 58.4661 180.032 58.035 179.575 57.6547C177.597 56.0318 175.087 55.1443 172.323 55.1443C168.925 55.1443 165.654 56.5136 163.093 58.745C162.992 58.8211 162.916 58.9225 162.814 58.9986C162.738 59.0493 162.688 59.1254 162.611 59.1761C160.938 60.7482 159.619 62.7007 158.808 64.856C158.808 64.8813 158.783 64.9067 158.783 64.9574C158.681 65.2363 158.605 65.5153 158.504 65.8195C158.351 66.352 158.225 66.8845 158.149 67.4424C158.073 67.9495 158.022 68.4566 157.996 68.9638C157.946 70.4345 158.174 71.8798 158.63 73.1983C158.402 73.5787 158.098 73.9337 157.768 74.2633C156.83 75.1508 155.588 75.734 154.294 75.8354C154.168 75.8354 154.066 75.8354 153.939 75.8354C153.432 75.8354 152.951 75.734 152.519 75.5819C151.987 75.379 151.531 75.0494 151.226 74.6183C150.643 73.7816 150.643 72.5644 151.176 71.1698C151.302 70.8148 152.114 68.6595 152.849 66.7324C153.407 65.2363 153.914 63.8417 154.015 63.5628C154.066 63.4106 154.168 63.1824 154.244 62.9035C154.37 62.371 154.447 61.6357 154.092 60.875C153.939 60.5707 153.762 60.3171 153.559 60.0889C153.153 59.6578 152.621 59.4043 152.114 59.2014C151.911 59.1254 151.708 59.0493 151.505 58.9986C151.15 58.8971 150.77 58.745 150.339 58.5675C150.313 58.5675 150.313 58.5422 150.288 58.5422C149.578 58.2379 146.155 56.6404 146.155 53.5976C146.155 53.5215 146.155 53.4454 146.155 53.3947C146.155 53.3694 146.155 53.344 146.155 53.3187C146.155 53.2933 146.155 53.2426 146.155 53.2172C146.104 52.7608 145.952 52.4819 145.749 52.3297C145.724 52.3297 145.724 52.3044 145.698 52.3044C145.698 52.3044 145.698 52.3044 145.673 52.3044C145.648 52.279 145.622 52.279 145.597 52.2537C145.597 52.2537 145.597 52.2537 145.572 52.2537C145.572 52.2537 145.572 52.2537 145.546 52.2537C145.521 52.2537 145.521 52.2283 145.496 52.2283C145.369 52.1776 145.242 52.1522 145.09 52.1522H142.757C142.275 52.1522 141.743 52.4058 141.388 52.7862C141.236 52.9383 141.109 53.1412 141.033 53.344C140.526 54.6372 139.917 56.184 139.283 57.8322C137.052 63.5628 134.389 70.4345 133.629 72.3869C133.603 72.463 133.578 72.5391 133.553 72.6151C132.944 74.1112 131.651 75.9115 128.887 75.9115C127.695 75.9115 126.706 75.4551 126.199 74.6944C125.895 74.238 125.743 73.6548 125.768 72.9701C125.793 72.4376 125.92 71.8544 126.148 71.2459C126.63 69.978 127.67 67.3409 128.76 64.5517C129.8 61.8892 130.89 59.0493 131.651 57.1222C131.904 56.4629 131.549 55.9304 130.839 55.9304H128.481H128.253C128.101 55.9304 127.923 55.9558 127.746 56.0065C127.721 56.0065 127.721 56.0065 127.695 56.0065C127.137 56.1586 126.579 56.539 126.25 56.9447C125.033 58.4154 123.461 59.6071 121.736 60.4693C120.012 61.3314 118.161 61.8892 116.386 62.0921C116.133 61.4328 115.803 60.7735 115.397 60.165C115.372 60.1396 115.372 60.1143 115.346 60.0889C115.093 59.7086 114.839 59.3536 114.535 58.9986C112.43 56.5643 109.413 55.2204 105.99 55.2204C104.164 55.2204 102.389 55.6261 100.716 56.3361C101.552 54.1808 102.389 52.0001 103.175 49.9462C104.139 47.4359 105.052 45.1031 105.787 43.176C105.914 42.8717 105.888 42.6181 105.787 42.3899C105.66 42.1363 105.381 41.9842 105.001 41.9842H104.976H102.643H102.617C102.338 41.9842 102.034 42.0856 101.755 42.2378C101.426 42.4153 101.147 42.6688 100.995 42.9731C100.969 43.0492 100.918 43.0999 100.893 43.176C97.8756 50.8591 93.0579 63.3092 90.7758 69.2681C90.1418 70.8909 89.7108 72.0573 89.5333 72.4884C88.9247 73.9844 87.6315 75.7847 84.893 75.7847C84.6394 75.7847 84.4112 75.7594 84.2084 75.734C83.3462 75.5819 82.6109 75.2015 82.2052 74.5676C82.1291 74.4408 82.053 74.314 81.977 74.1619C81.7488 73.6548 81.6727 73.0209 81.7995 72.3362C81.8502 72.0066 82.0277 71.4741 82.2305 70.9416C82.5095 70.1809 82.7884 69.4455 82.7884 69.4455C82.7884 69.4455 83.8027 66.8592 85.248 63.1064C85.4001 62.7007 85.5776 62.2696 85.7551 61.8132C85.7805 61.7625 85.8058 61.7117 85.8058 61.661C88.0372 55.9304 91.0293 48.1966 93.1846 42.6181C94.0468 40.3614 94.7821 38.4596 95.2893 37.1918C95.5428 36.5325 95.1878 36 94.4778 36H92.1197C91.4097 36 90.649 36.5325 90.3954 37.1918C90.1165 37.9018 87.6315 44.3424 84.8423 51.5437C81.2416 60.8243 77.1592 71.3727 76.7281 72.5137C76.6267 72.7419 76.5253 72.9701 76.3985 73.1983C76.0181 73.9337 75.4349 74.6437 74.6235 75.1508C73.9642 75.5565 73.1021 75.8101 72.0625 75.8354C71.0989 75.8354 70.2875 75.5565 69.7297 75.024C69.6029 74.8973 69.4761 74.7705 69.3493 74.6183C68.969 74.0351 68.8168 73.2998 68.969 72.4376V72.4123C69.0957 71.6769 70.0846 69.0906 70.0846 69.0398C70.7186 67.417 71.4539 65.4899 72.24 63.436C74.8517 56.7165 78.0467 48.3995 80.1006 43.1506C80.1513 42.9985 80.1766 42.8463 80.1766 42.6942C80.1513 42.4913 80.0752 42.2885 79.9231 42.1617C79.7709 42.0349 79.5681 41.9588 79.2892 41.9588H76.931C76.6774 41.9588 76.3985 42.0349 76.1449 42.1617C75.7899 42.3392 75.4856 42.6181 75.3081 42.9477C75.2828 42.9985 75.2321 43.0745 75.2067 43.1252C74.5982 44.672 73.9389 46.3963 73.2289 48.222C72.4682 50.1998 71.6568 52.3044 70.82 54.409C67.5743 62.7767 64.354 71.1698 63.8215 72.5137C63.644 72.9448 63.4158 73.3758 63.1369 73.8069C62.3762 74.8973 61.1591 75.8101 59.1559 75.8101C58.4205 75.8101 57.7613 75.6326 57.2288 75.3283C56.9245 75.1255 56.6456 74.8973 56.4681 74.593C56.3413 74.3901 56.2399 74.1873 56.1638 73.9591C56.0117 73.5026 55.9863 72.9701 56.0877 72.3869C56.2145 71.6769 56.9245 69.8259 57.0513 69.547C57.0513 69.5216 57.0766 69.4963 57.0766 69.4963L61.9198 57.0207C62.1733 56.3615 61.8183 55.829 61.1084 55.829H58.7502C58.3191 55.829 57.8627 56.0318 57.5077 56.3361C57.4823 56.3361 57.4823 56.3615 57.4823 56.3615C57.2795 56.539 57.1274 56.7672 57.0513 56.9954L56.5695 58.2632L55.8088 60.2411C55.6567 60.0128 55.5045 59.7846 55.3524 59.5564C55.2002 59.3282 55.0227 59.1254 54.8452 58.9225C54.0845 58.035 53.1717 57.2743 52.1828 56.6911C50.4839 55.6768 48.4807 55.1443 46.3254 55.1443C41.0258 55.1443 36.0052 58.4914 33.5456 63.2078C32.8609 64.5263 32.3792 65.9463 32.151 67.417C31.6185 70.8655 32.5059 74.1365 34.6359 76.5962C35.2952 77.3569 36.0305 78.0161 36.8673 78.5486C37.0195 78.65 37.1969 78.7515 37.3744 78.8529C39.0733 79.8418 41.0512 80.3743 43.1811 80.3743C46.6043 80.3743 49.926 78.9543 52.5124 76.6976C52.5885 76.8497 52.6899 77.0019 52.7913 77.154C52.8421 77.2301 52.9181 77.3315 52.9688 77.4076C52.9688 77.4329 52.9942 77.4329 52.9942 77.4583C53.0449 77.5344 53.121 77.6104 53.1717 77.6865C53.2224 77.7372 53.2731 77.7879 53.2985 77.8386C53.3238 77.8893 53.3746 77.9147 53.4253 77.9654C53.5013 78.0415 53.5774 78.1176 53.6281 78.1936C53.6535 78.219 53.6788 78.2443 53.7042 78.2697C53.8056 78.3458 53.8817 78.4472 53.9831 78.5233C53.9831 78.5233 53.9831 78.5233 54.0085 78.5486C54.8706 79.284 55.9609 79.8672 57.2288 80.1715C57.2541 80.1715 57.2795 80.1968 57.3048 80.1968C57.4316 80.2222 57.5584 80.2475 57.6852 80.2729C57.7359 80.2729 57.7866 80.2982 57.8627 80.2982C57.9641 80.3236 58.0655 80.3236 58.1923 80.349C58.2938 80.349 58.3698 80.3743 58.4713 80.3743C58.5473 80.3743 58.6234 80.3997 58.7248 80.3997C58.9023 80.3997 59.0798 80.425 59.2827 80.425C60.6012 80.425 61.8437 80.1715 62.9848 79.6897C63.4158 79.5122 63.8215 79.3093 64.2019 79.0558C64.3287 78.9797 64.4555 78.9036 64.5822 78.8022C65.0894 78.4472 65.5711 78.0668 66.0022 77.6104C66.1544 77.8133 66.3319 77.9908 66.5093 78.1683C67.6758 79.36 69.2479 80.0954 71.0482 80.3236C71.0989 80.3236 71.175 80.349 71.2257 80.349C71.2764 80.349 71.3271 80.349 71.3778 80.349C71.4793 80.349 71.5807 80.3743 71.6821 80.3743C71.7328 80.3743 71.7836 80.3743 71.8089 80.3743C71.9103 80.3743 72.0371 80.3743 72.1385 80.3743C74.7756 80.3743 77.1085 79.3854 78.8327 77.6104C79.492 78.4218 80.3288 79.0811 81.2923 79.5629C82.3827 80.0954 83.6252 80.3743 84.9437 80.3743C85.6283 80.3743 86.2876 80.2982 86.9215 80.1715C89.6854 79.6136 91.9675 77.864 93.3621 75.2269C93.4382 75.3537 93.5143 75.4551 93.5904 75.5819C93.6918 75.734 93.7932 75.8862 93.8946 76.0383C94.0468 76.2412 94.1989 76.4187 94.3511 76.6215C96.4557 79.0558 99.4731 80.3997 102.896 80.3997C107.562 80.3997 112.025 77.7879 114.687 73.9844C115.904 72.2348 116.741 70.257 117.071 68.1524C117.147 67.6199 117.197 67.0874 117.223 66.5549C117.679 66.5042 118.136 66.4281 118.567 66.3267C120.519 65.9463 122.345 65.3124 123.968 64.4503C123.917 64.5771 123.866 64.7292 123.816 64.856C123.055 66.8592 122.37 68.5834 122.015 69.5216C120.9 72.3362 121.077 75.0747 122.522 77.2047C123.055 77.9908 123.74 78.6501 124.526 79.1572C125.793 79.9686 127.315 80.425 128.988 80.425C133.02 80.425 136.342 78.1176 137.914 74.2126C138.117 73.7055 138.523 72.6405 139.055 71.2459C140.171 68.3806 141.844 64.0699 143.366 60.165C143.492 59.81 143.645 59.455 143.771 59.1254C145.09 60.7735 146.865 62.016 148.589 62.7514C148.691 62.8021 148.767 62.8274 148.868 62.8782C149.071 62.9542 149.274 63.0303 149.451 63.1064C148.589 65.4392 147.22 69.1413 147.042 69.547C146.358 71.2966 146.155 72.9955 146.459 74.5423C146.637 75.5058 147.017 76.4187 147.55 77.2301C147.905 77.7372 148.31 78.1936 148.767 78.5993C150.034 79.6897 151.683 80.3489 153.508 80.4504C153.686 80.4504 153.838 80.4757 154.015 80.4757C154.294 80.4757 154.573 80.4504 154.852 80.425C154.903 80.425 154.979 80.425 155.03 80.3997C155.055 80.3997 155.08 80.3997 155.106 80.3997C156.272 80.2729 157.388 79.9179 158.428 79.4108C159.493 78.8783 160.456 78.1683 161.268 77.3315C162.865 78.9036 164.919 79.9179 167.226 80.2982C167.86 80.3997 168.52 80.4504 169.204 80.4504C170.066 80.4504 170.928 80.3489 171.765 80.1968C174.073 79.7404 176.253 78.65 178.079 77.154C178.257 77.0272 178.409 76.8751 178.561 76.7229C178.662 76.9004 178.764 77.0779 178.865 77.2301C179.753 78.5233 181.02 79.4615 182.516 79.994C182.593 80.0193 182.669 80.0447 182.719 80.07C182.795 80.0954 182.897 80.1207 182.973 80.1461C183.074 80.1715 183.15 80.1968 183.252 80.2222C183.328 80.2475 183.404 80.2475 183.48 80.2729C183.581 80.2982 183.658 80.3236 183.759 80.3236C183.835 80.3489 183.911 80.349 183.987 80.3743C184.089 80.3997 184.165 80.3997 184.266 80.3997C184.368 80.3997 184.469 80.425 184.57 80.425C184.646 80.425 184.723 80.4504 184.799 80.4504C184.976 80.4504 185.154 80.4757 185.356 80.4757C189.388 80.4757 192.71 78.1683 194.282 74.2633C194.358 74.0351 195.829 70.3584 197.021 67.3156C197.376 66.4027 197.705 65.5406 197.959 64.856C198.086 65.1349 198.238 65.4392 198.364 65.7181C198.846 66.6817 199.353 67.6706 199.886 68.6848C200.317 69.4963 200.773 70.333 201.179 71.1698C202.422 73.6548 203.461 76.1904 203.461 78.6754C203.461 86.0035 198.491 87.2967 196.97 87.5249C195.956 87.6771 195.195 88.4631 195.043 89.4267C195.017 89.6549 194.992 89.8831 195.043 90.1113C195.043 90.1874 195.068 90.2634 195.093 90.3142C195.347 91.3284 196.26 92.0638 197.299 92.0638C197.35 92.0638 197.401 92.0638 197.477 92.0638C197.528 92.0638 197.578 92.0638 197.654 92.0638C198.846 91.8863 200.114 91.5059 201.306 90.9227C204.83 88.9449 208 85.0907 208 78.5233ZM178.789 67.3917C178.358 70.3838 176.456 73.0209 173.971 74.5169C173.946 74.5423 173.895 74.5676 173.87 74.5676C173.87 74.5676 173.844 74.5676 173.844 74.593C172.526 75.3537 171.055 75.7847 169.534 75.7847C168.824 75.7847 168.139 75.6833 167.505 75.4805C166.39 75.1255 165.401 74.4915 164.665 73.6041C163.93 72.7166 163.474 71.6262 163.296 70.4091V70.3837C163.195 69.6484 163.195 68.8877 163.321 68.1016C163.499 66.9352 163.879 65.8195 164.462 64.8053C165.223 63.436 166.288 62.2696 167.531 61.3821C169.027 60.3425 170.776 59.7086 172.577 59.7086C173.794 59.7086 174.909 59.9875 175.848 60.5453C176.456 60.9003 176.989 61.3567 177.445 61.8892C177.673 62.1682 177.876 62.4471 178.028 62.7514C178.612 63.7656 178.89 64.9574 178.89 66.2252C178.89 66.6056 178.865 66.9859 178.789 67.3917ZM100.817 75.5565C99.5745 75.2269 98.5096 74.5676 97.7235 73.5787C96.5317 72.1334 96.05 70.1809 96.3542 68.0763V68.0509C96.4303 67.5184 96.5571 67.062 96.6839 66.6817C96.8614 66.2252 97.0389 65.7435 97.2417 65.2617C97.2671 65.1856 97.3178 65.1349 97.3432 65.0588C97.4192 64.9321 97.4699 64.8053 97.546 64.6785C97.5714 64.6278 97.5967 64.6024 97.6221 64.5517C98.1799 63.6135 98.8646 62.7767 99.6506 62.0667C101.324 60.596 103.429 59.6832 105.609 59.6832C106.598 59.6832 107.537 59.8861 108.348 60.2411C109.185 60.6214 109.895 61.1539 110.478 61.8639C111.67 63.3092 112.151 65.2617 111.847 67.3917C111.163 72.0066 107.004 75.7847 102.567 75.7847C101.958 75.7847 101.375 75.7087 100.817 75.5565ZM43.4347 75.7847C41.4315 75.7847 39.7073 74.9987 38.5409 73.6041C38.4141 73.4519 38.3126 73.2998 38.2112 73.1476C37.2477 71.753 36.8927 69.978 37.1716 68.0763C37.8562 63.4614 42.0401 59.6832 46.5029 59.6832C48.5061 59.6832 50.2303 60.4693 51.3967 61.8639C52.5885 63.3092 53.0956 65.2617 52.766 67.3917C52.7153 67.7467 52.6392 68.1016 52.5378 68.4566C51.4221 72.5644 47.5425 75.7847 43.4347 75.7847Z" fill="black"/>
</svg>
