<svg width="240" height="128" viewBox="0 0 240 128" fill="none" xmlns="http://www.w3.org/2000/svg">
<g clip-path="url(#clip0)">
<path d="M152.928 53.0289L148.468 53.0404V75.9265H168.923C171.16 74.9771 172.358 73.336 172.821 71.4199H152.917L152.928 53.0289ZM186.306 57.602H203.369C205.739 57.1331 207.505 55.0405 208 53.0173H181.673C182.165 55.0405 183.956 57.1331 186.306 57.602ZM131.049 57.5383C133.42 56.8495 135.417 55.0405 135.903 53.0346H110.867V66.5573H131.359V71.3041L115.286 71.3186C112.765 72.019 110.635 73.7094 109.567 75.9438L110.867 75.9207H135.764V62.0623H115.286V57.5383H131.049ZM182.361 75.9207H186.798V66.7078H202.952V75.9207H207.386V62.1028L182.361 62.0797V75.9207ZM76.3828 57.5875H93.4424C95.8158 57.1158 97.5785 55.0231 98.0734 52.9999H71.7488C72.2409 55.0231 74.0296 57.1158 76.3828 57.5875ZM32 53.052C32.5123 55.0549 34.2461 57.0955 36.6224 57.6107H43.8034L44.1681 57.7554V75.8744H48.6544V57.7554L49.0596 57.6107H56.2493C58.6488 56.9913 60.3449 55.0549 60.8514 53.052V53.0086H32V53.052ZM76.3828 75.9236H93.4424C95.8158 75.4489 97.5785 73.362 98.0734 71.336H71.7488C72.2409 73.362 74.0296 75.4489 76.3828 75.9236ZM76.3828 66.6326H93.4424C95.8158 66.1637 97.5785 64.071 98.0734 62.0478H71.7488C72.2409 64.071 74.0296 66.1637 76.3828 66.6326Z" fill="#E82127"/>
</g>
<defs>
<clipPath id="clip0">
<rect width="176" height="22.9439" fill="white" transform="translate(32 53)"/>
</clipPath>
</defs>
</svg>
