<svg width="240" height="128" viewBox="0 0 240 128" fill="none" xmlns="http://www.w3.org/2000/svg">
<path d="M174.694 63.1715C174.694 62.0385 174.694 60.9209 174.694 59.6999C175 59.6757 175.315 59.6295 175.627 59.6295C182.986 59.6251 190.347 59.5811 197.706 59.6647C199.288 59.6823 200.905 60.0959 201.627 61.8537C201.706 62.0495 201.794 62.2607 201.796 62.4653C201.805 66.5397 201.803 70.6119 201.803 74.7875C201.407 74.8073 201.055 74.8403 200.703 74.8403C193.599 74.8425 186.495 74.8821 179.391 74.8051C178.153 74.7919 176.848 74.4443 175.704 73.9537C174.633 73.4917 174.265 72.3719 174.125 71.2015C173.99 70.0795 173.863 69.0169 174.085 67.8509C174.314 66.6585 175.636 65.2637 176.892 65.2703C183.336 65.3099 189.78 65.2703 196.226 65.2703C196.941 65.2703 197.524 65.2703 197.517 64.2737C197.513 63.6137 197.194 63.3563 196.672 63.2309C196.36 63.1539 196.019 63.1759 195.689 63.1759C189.208 63.1737 182.727 63.1737 176.245 63.1737C175.777 63.1715 175.306 63.1715 174.694 63.1715ZM197.403 68.7287C196.961 68.7287 196.635 68.7287 196.309 68.7287C190.71 68.7287 185.109 68.7441 179.51 68.7133C178.635 68.7089 178.192 68.9993 178.203 69.8639C178.217 70.7153 178.663 71.0057 179.528 71.0013C185.054 70.9683 190.581 70.9859 196.107 70.9837C197.541 70.9837 197.544 70.9815 197.486 69.5097C197.482 69.2963 197.445 69.0873 197.403 68.7287Z" fill="black"/>
<path d="M125.012 59.6294C128.523 59.6294 132.036 59.5876 135.545 59.6602C136.403 59.6778 137.294 59.9704 138.097 60.3092C139.497 60.901 139.708 62.3024 139.78 63.541C139.919 65.8972 139.963 68.2798 139.763 70.6272C139.653 71.9142 139.723 73.5378 138.168 74.2242C137.398 74.563 136.516 74.8072 135.68 74.8116C128.987 74.8578 122.293 74.8622 115.598 74.8116C114.573 74.8028 113.506 74.574 112.538 74.2264C110.584 73.5202 110.707 71.6216 110.544 70.0662C110.346 68.1962 110.408 66.2822 110.533 64.399C110.604 63.3298 110.881 62.2166 111.326 61.242C111.854 60.0848 113.015 59.6448 114.256 59.636C117.842 59.6096 121.426 59.6272 125.012 59.6294ZM125.087 71.3026C128.085 71.3026 131.084 71.3026 134.085 71.3026C135.013 71.3026 135.574 71.0232 135.521 69.9144C135.442 68.2094 135.451 66.4934 135.519 64.7862C135.559 63.7984 135.248 63.464 134.223 63.4706C128.226 63.5124 122.227 63.5102 116.229 63.4728C115.189 63.4662 114.898 63.9436 114.903 64.8412C114.914 66.4406 114.905 68.0422 114.905 69.6438C114.907 71.1112 115.081 71.2982 116.529 71.3004C119.382 71.307 122.235 71.3026 125.087 71.3026Z" fill="black"/>
<path d="M51.767 70.8648C52.9484 69.0212 53.9758 67.4636 54.9592 65.8818C57.3396 62.045 59.7002 58.1972 62.0784 54.3582C62.1906 54.1756 62.4128 53.938 62.5888 53.9358C64.3994 53.905 66.2122 53.916 68.1416 53.916C65.5588 58.0762 63.0728 62.0802 60.5912 66.0842C58.9984 68.6538 57.4276 71.2388 55.8084 73.793C55.3904 74.453 54.8734 74.9524 53.8922 74.8732C52.4006 74.7522 50.8936 74.8182 49.3932 74.8534C48.7508 74.8688 48.3416 74.6752 47.9654 74.123C46.278 71.6436 44.5246 69.2104 42.8218 66.742C41.317 64.5596 39.8562 62.3486 38.3624 60.1574C37.0534 58.239 35.7268 56.336 34.409 54.4242C34.3342 54.3164 34.2902 54.1888 34.1538 53.9072C36.0524 53.9072 37.8036 53.8764 39.5504 53.9358C39.8606 53.9468 40.2456 54.2768 40.448 54.565C43.4862 58.8902 46.5024 63.233 49.5208 67.5758C50.216 68.579 50.898 69.5932 51.767 70.8648Z" fill="black"/>
<path d="M107.772 59.6624C105.775 62.265 103.9 64.7422 101.984 67.1886C100.114 69.5778 98.2001 71.934 96.3015 74.3012C96.2135 74.4112 96.0903 74.4948 95.9781 74.585C95.2697 75.1658 90.8521 74.893 90.2317 74.2044C86.7007 70.2774 83.1851 66.3394 79.6541 62.4146C78.8687 61.5412 78.0415 60.7008 77.0317 59.6338C79.1327 59.6338 80.9235 59.537 82.6923 59.6954C83.2049 59.7416 83.6933 60.4786 84.1201 60.9626C86.8899 64.091 89.6311 67.2458 92.4009 70.3742C93.1819 71.2564 93.4393 71.175 94.1631 70.2136C95.4193 68.546 96.7283 66.918 98.0219 65.279C99.3573 63.585 100.697 61.8976 102.039 60.2102C102.189 60.021 102.358 59.6954 102.523 59.691C104.248 59.6492 105.975 59.6624 107.772 59.6624Z" fill="black"/>
<path d="M166.354 66.115C166.308 65.8422 166.279 65.7366 166.275 65.631C166.182 63.4948 166.182 63.4948 163.969 63.4948C159.358 63.4948 154.747 63.5234 150.136 63.4728C149.044 63.4618 148.732 63.9106 148.741 64.8852C148.763 67.7232 148.747 70.5634 148.747 73.4036C148.747 73.8326 148.747 74.2638 148.747 74.7676C147.39 74.7676 146.16 74.7676 144.829 74.7676C144.829 69.9474 144.829 65.0942 144.829 60.12C145.084 60.098 145.397 60.0452 145.709 60.0452C152.663 60.0496 159.618 60.043 166.57 60.0804C167.896 60.087 169.271 60.4434 169.788 61.7502C170.274 62.9778 170.338 64.3726 170.532 65.7036C170.547 65.8092 170.127 66.0908 169.903 66.0996C168.743 66.137 167.579 66.115 166.354 66.115Z" fill="black"/>
<path d="M74.7129 74.7785C73.4501 74.7785 72.2577 74.7785 70.9531 74.7785C70.9531 69.7735 70.9531 64.7597 70.9531 59.6865C72.2093 59.6865 73.4325 59.6865 74.7129 59.6865C74.7129 64.7069 74.7129 69.6723 74.7129 74.7785Z" fill="black"/>
<path d="M70.9312 54.0105C72.26 54.0105 73.4524 54.0105 74.7086 54.0105C74.7086 55.2513 74.7086 56.4327 74.7086 57.7043C73.4612 57.7043 72.2424 57.7043 70.9312 57.7043C70.9312 56.4921 70.9312 55.2843 70.9312 54.0105Z" fill="black"/>
</svg>
